<svg width="1920" height="128" viewBox="0 0 1920 128" fill="none" xmlns="http://www.w3.org/2000/svg">
<path d="M-196.866 56.2747C-182.409 58.6692 -180.312 59.1284 -180.864 59.8106C-181.207 60.2436 -180.447 61.4704 -179.159 62.5528C-177.259 64.1535 -177.394 65.0325 -179.92 67.3745C-181.6 68.9424 -184.224 70.2282 -185.683 70.2019C-187.142 70.1757 -188.871 71.35 -189.533 72.931C-190.87 76.093 -189.533 79.4255 -186.885 79.4911C-186.002 79.4911 -182.948 81.0131 -180.03 82.8828C-172.39 87.7766 -158.19 90.6238 -140.275 90.8599C-123.107 91.083 -70.66 92.7821 -49.7891 93.7923C-37.0728 94.409 -14.9388 93.3003 -23.2651 92.4803C-25.7177 92.231 -24.6384 91.7783 -20.2362 91.2601C-13.2465 90.4335 -13.2466 90.4335 -18.0658 89.0428L-22.8972 87.6454L-18.4704 86.1235C-16.0179 85.2903 -12.9645 85.0673 -11.6892 85.6249C-10.4139 86.1825 -0.481308 86.668 10.273 86.6811C21.0273 86.6942 29.3659 87.2059 28.7528 87.816C28.1396 88.4261 18.3541 89.2658 7.18294 89.6791C-10.3648 90.3351 -12.0203 90.5844 -4.52789 91.4963C0.377136 92.0998 5.28217 93.6283 6.80272 95.0453C9.03452 97.1774 10.3099 97.3282 15.7299 96.1081C19.1389 95.334 22.7686 94.96 23.627 95.2946C24.4853 95.6292 39.0165 96.3836 56.1228 96.9674L87.0491 98.0236L87.1595 94.8485C87.2698 91.5684 82.7817 90.1711 80.2802 92.7558C79.9485 93.1043 79.4597 93.4031 78.8581 93.6253C78.2565 93.8475 77.561 93.9861 76.8343 94.0285C75.6081 94.0285 76.3193 92.828 78.3549 91.4044C83.3703 87.9013 93.352 88.0522 94.6028 91.6471C95.1178 93.1101 96.5648 94.2712 97.8279 94.2122C99.9211 94.1774 102.016 94.23 104.094 94.3696C108.067 94.6255 108.067 94.6255 104.094 96.4885C100.354 98.2532 100.55 98.3647 107.908 98.6403C142.304 99.913 232.802 100.969 256.175 100.372C275.905 99.8736 285.261 100.064 285.691 100.969C286.586 102.891 295.047 102.832 297.585 100.884C299.13 99.6965 298.419 99.2635 294.642 99.0667C289.676 98.8108 286.733 97.6759 288.352 96.6394C289.774 95.7341 347.911 96.3442 349.248 97.2954C349.897 97.7481 348.021 98.0695 345.041 98.0302C336.826 97.9055 338.984 100.576 347.335 100.877C367.016 101.579 381.817 101.317 388.77 100.156C396.373 98.883 405.508 99.6637 405.447 101.579C405.447 102.084 409.714 102.091 414.901 101.579C421.169 101.072 427.543 101.072 433.81 101.579C438.973 102.091 444.381 101.933 445.766 101.225C447.152 100.516 453.124 100.129 458.838 100.359C464.553 100.589 469.801 100.359 470.304 99.8014C470.806 99.2438 473.983 99.0929 477.588 99.4472C486.319 100.307 492.977 95.2618 506.147 94.4483C516.521 93.7923 512.904 99.0142 511.678 101.074C510.537 102.99 511.114 103.206 515.124 102.386C517.772 101.842 530.685 101.494 543.818 101.619C560.336 101.769 569.005 101.31 571.936 100.116C574.56 99.047 577.601 98.8043 579.919 99.4603C584.432 100.772 592.844 97.5316 604.444 96.0949C609.532 95.4186 612.85 98.7157 617.835 99.5849C623.77 100.766 625.548 100.516 631.434 97.6694C637.762 94.6058 639.601 94.3893 659.307 94.7698C670.846 94.9797 680.374 95.721 680.349 96.4098C680.325 97.0986 673.544 97.5644 665.377 97.4463C656.793 97.3217 650.429 97.7875 650.404 98.5484C650.38 99.3094 648.871 99.8605 646.873 99.8605C643.586 99.8605 643.586 99.9326 646.934 100.884C651.152 102.078 687.302 102.242 693.311 101.087C695.911 100.589 698.78 101.186 700.828 102.649C703.624 104.649 704.936 104.781 709.412 103.501C712.22 102.688 715.04 102.301 715.543 102.662C716.046 103.022 718.829 102.734 721.674 102.006C728.505 100.293 760.547 100.084 762.031 101.743C763.514 103.403 785.33 104.499 786.764 103.055C787.328 102.465 799.829 97.8006 803.41 98.5484C803.41 104.407 880.07 105.135 889.279 103.449C893.13 102.74 901.664 102.183 908.237 102.209C914.81 102.235 921.37 101.645 922.817 100.897C924.853 99.8539 925.699 100.241 926.496 102.478C927.44 105.01 928.029 105.161 930.837 103.593C934.896 101.323 947.871 97.5382 950.41 99.8605C951.942 101.264 955.276 105.286 968.839 104.407C987.233 103.219 1044.18 98.5484 1043.31 104.006C1044.18 104.348 1073.49 101.579 1122.04 102.478C1184.32 103.633 1221.61 107.477 1222.21 106.46C1222.81 105.443 1223.84 105.443 1225.79 106.512C1227.74 107.582 1216.43 100.844 1268.96 101.763C1310.54 102.491 1394.96 92.16 1405.6 111.564C1440.46 87.5748 1432.4 111.99 1434.08 111.124C1435.76 110.258 1437.4 110.252 1438.99 111.328C1440.21 112.174 1443.71 112.922 1446.7 112.968C1449.69 113.014 1452.83 113.722 1453.52 114.529C1454.42 115.526 1457.86 115.73 1464.05 115.146C1471.06 114.569 1478.11 114.188 1485.19 114.004C1491.76 113.847 1501.54 113.545 1506.92 113.348C1512.3 113.151 1519.18 113.506 1522.32 114.175C1525.46 114.844 1565.56 98.0627 1576.33 97.4001C1589.69 96.5801 1566.64 113.46 1567.51 114.444C1568.38 115.428 1647.08 100.379 1656.25 99.8605C1664.03 99.4209 1600.53 114.837 1605.4 115.533C1612.54 116.563 1615.27 116.333 1620.47 114.299C1625.67 112.266 1667.84 102.996 1683.56 103.075C1694.51 103.127 1667.77 112.082 1669.41 112.174C1674.14 112.183 1678.87 112.031 1683.56 111.721C1689.69 111.374 1695.25 111.629 1695.89 112.299C1696.53 112.968 1708.01 112.686 1723.59 111.518L1760.38 99.8605L1788.65 95.4449C1798.83 94.6708 1796.05 106.565 1796.8 107.3C1797.54 108.034 1803.11 108.881 1809.46 109.34C1815.82 109.799 1819.84 109.674 1818.43 109.058C1812.75 106.578 1821.15 105.122 1844.06 104.702C1865.97 104.275 1867.55 104.4 1865 106.381C1862.45 108.362 1862.63 108.533 1865.63 108.579C1867.49 108.579 1871.63 107.451 1874.87 106.001C1879.92 103.738 1880.89 103.646 1881.86 105.345C1882.76 106.939 1884.89 107.214 1892.27 106.69C1897.46 106.322 1902.01 105.627 1902.59 105.122C1904.8 103.154 1916.07 102.714 1917.13 104.544C1917.85 105.856 1920.46 106.08 1928.66 105.378C1934.44 104.886 1939.69 104.931 1940.29 105.483C1940.89 106.034 1943.54 106.598 1946.33 106.736C1950.58 106.945 2012.99 107.811 2027.91 107.87C2035.48 107.87 2056.84 111 2061.4 112.725C2064.34 113.847 2065.48 115.618 2065.37 118.924C2065.27 121.837 2066 123.254 2067.33 122.729C2068.67 122.204 2069.9 123.097 2070.48 124.697C2071.83 128.371 2075.95 128.227 2080.79 124.323C2083.53 122.099 2085.36 117.835 2086.55 110.829C2087.52 105.148 2089 100.005 2089.92 99.2832C2090.84 98.5616 2092.21 96.0687 2092.99 93.8317C2094.21 90.4073 2093.51 89.1018 2089.31 86.3531C2084.64 83.342 2084.4 82.8368 2087.39 80.9606C2089.22 79.8095 2090.37 78.3979 2090.72 76.8999C2090.72 75.8683 2091.47 74.8774 2092.8 74.1315C2095.95 72.9113 2095.34 69.5394 2091.96 69.5C2087.32 69.4344 2088.46 66.8759 2093.67 65.6623C2100.26 64.1141 2099.93 57.4293 2093.19 56.2419C2089.23 55.5465 2088.95 55.1989 2091.47 54.1886C2093.81 53.0046 2095.72 51.5933 2097.08 50.0294C2099.53 47.2807 2099.28 47.0249 2093.72 46.1917C2087.38 45.2405 2086.72 44.1581 2090.04 40.1892C2091.47 38.4901 2093.48 37.8538 2095.78 38.3786C2101.32 39.6316 2098.93 33.2616 2093.04 31.064C2090.48 30.1128 2088.35 28.1841 2088.4 26.8523C2088.45 25.5206 2087.11 24.3792 2085.49 24.3595C2083.88 24.3398 2082.54 23.3886 2082.58 22.3258C2082.61 21.2631 2084.03 20.3578 2085.63 20.3578C2087.22 20.3578 2088.65 19.2754 2088.69 17.819C2088.74 16.3626 2089.66 14.8932 2090.8 14.4471C2094.42 13.0301 2093.11 10.9833 2089.1 11.7771C2086.32 12.3347 2085.05 11.7771 2084.39 9.80904C2083.78 7.95251 2081.94 7.05376 2078.52 7.00784C2075.73 6.96848 2073.13 6.14191 2072.61 5.13164C2072.08 4.12137 2074.87 16.6248 2070.91 16.0606C2066.95 15.4964 2059.24 5.93501 2059.91 5.25275C2069.38 22.6021 2068.38 25.9759 2059.41 3.9427C2057.38 15.4362 2068.76 39.7446 2055.91 9.80904C2052.06 20.2758 2060.63 30.8559 2055.91 13.3812C2050.12 28.0965 2065.54 38.0474 2059.76 13.3812C2060.82 13.8142 2079.45 53.2111 2064.44 24.3595C2064.53 21.8076 2070.78 25.7831 2058.44 25.7831C2050.41 25.7524 2035.82 29.1012 2027.91 28.3678C2020.55 27.5674 2031.29 33.9308 2027.91 35.0854C2024.81 36.1481 2016.01 33.6224 2010.86 32.9664C2006.5 32.4351 2019.84 83.624 1998.91 38.3786C2007.89 83.9995 2013.38 24.3464 1969.41 23.6969L1909.91 19.5312C1901.95 19.4131 1902.59 28.5169 1900.4 29.2779C1897.77 30.1832 1906.41 17.0619 1881.86 19.5312C1874.87 8.16244 1862.95 25.7252 1862.9 27.3128C1862.9 39.1342 1847.21 15.5426 1843.41 15.9625C1839.61 16.3823 1832.28 22.3991 1831.93 23.0552C1831.18 24.4131 1819.36 12.8792 1819.41 11.4425C1819.41 10.8587 1826.07 8.05092 1830.41 7.69011C1835.64 7.16812 1814.56 10.3977 1818.91 8.75838L1814.91 6.4658L1813.41 7.25002C1807.44 7.34187 1815.47 5.3122 1814.91 5.81078C1802.69 6.74889 1817.56 6.13598 1806.41 6.1491C1792.47 6.1491 1810.45 1.81185 1810.41 2.90084C1810.41 4.70489 1794.36 2.98647 1791.63 1.48419C1787.88 -0.569138 1754.24 0.375519 1747.19 2.73062C1743.52 3.94425 1739.3 4.60027 1737.79 4.18041C1734.44 3.23575 1732.5 4.74459 1734.36 6.8504C1735.29 7.90659 1737.67 7.75569 1742.69 6.33214C1748.73 4.61993 1755.86 3.6339 1756.91 3.6339C1758.23 4.27897 1766.67 2.45329 1767.68 3.24232C1769.83 4.73148 1771.56 5.01354 1773.23 4.13448C1775.46 2.96677 1783.85 2.23203 1790 2.65845C1793.89 2.92741 1792.86 6.54863 1788.65 7.38177C1786.58 7.78851 1802.98 22.1225 1796.8 22.2471C1789.82 22.3849 1784.63 13.7845 1770.58 17.8124C1769.36 19.1245 1748.73 23.3099 1747.19 22.2471C1744.74 20.5612 1737.18 10.5307 1733.52 12.7349C1731.99 13.4362 1730.03 13.81 1728.02 13.7845C1726.87 13.8431 1725.79 14.081 1724.89 14.4685C1724 14.8559 1723.34 15.3756 1723 15.9625C1720.92 19.4525 1716.12 21.4468 1709.94 21.3943C1702.58 21.3287 1703.04 19.4656 1711.08 16.9596C1716.71 15.2081 1716.94 14.9457 1712.94 14.8866C1709.74 14.9513 1706.63 15.477 1703.93 16.4086C1699.22 18.1011 1694.7 18.5078 1680.57 18.5209C1668.63 18.5209 1665.44 20.22 1669.4 24.4251C1672.25 27.4559 1672.21 27.5149 1667.23 27.4428C1663.05 27.3837 1662.32 26.9048 1663.44 24.7334C1664.56 22.562 1663.83 22.1094 1659.46 22.0241C1655.27 21.965 1654.61 22.3127 1656.25 23.6969C1658.99 25.9995 1656.99 27.2853 1650.82 27.1935C1647.44 27.141 1646.38 26.5375 1647.2 25.2254C1648.11 23.7363 1647.36 23.5591 1643.75 24.412C1638.33 25.6912 1623.15 24.412 1621.5 22.5292C1620.09 20.9285 1628.66 16.9465 1633.85 16.7956C1636.02 16.73 1645.03 15.8181 1653.63 14.7948C1662.23 13.7714 1669.96 13.1416 1670.6 13.4171C1671.91 13.9879 1696.54 11.6984 1715.14 9.27766C1721.33 8.47076 1727.75 7.02753 1729.18 6.10911C1731.3 4.76427 1730.82 4.56091 1726.83 5.09884C1698.23 8.93654 1682.1 10.4716 1678.7 9.69095C1677.56 9.45174 1676.32 9.38642 1675.12 9.5023C1673.92 9.61817 1672.81 9.91065 1671.9 10.347C1670.28 11.2326 1668.14 11.4819 1666.9 10.9374C1665.66 10.3929 1663.53 10.6291 1662.1 11.39C1659.23 12.9251 1643.89 14.1191 1626.78 14.1387C1620.64 14.1387 1614.73 14.5914 1613.9 15.1228C1613.07 15.6541 1609.29 16.0478 1605.71 15.9953C1602.13 15.9428 1599.03 16.5398 1599 17.3073C1598.98 18.0749 1596.4 17.7731 1593.05 16.566C1587.55 14.598 1586.19 14.8013 1586.92 17.596C1587.08 18.1929 1585.82 18.2913 1584.05 17.8124C1577.15 15.9559 1565.23 15.1162 1565.18 16.5004C1565.09 19.072 1567.47 32.5273 1549.41 32.1665C1539.46 31.9697 1512.51 19.8264 1510.33 19.5312C1508.15 19.236 1503.56 19.6493 1500.14 20.5087C1496.34 21.4599 1488.45 21.7879 1479.91 21.3353C1469.18 20.7711 1465.19 21.0532 1462.74 22.5358C1460.91 23.6641 1458.3 24.4579 1456.51 24.4317C1454.72 24.4054 1453.39 25.2189 1453.36 26.3997C1453.32 27.5805 1452.36 28.3678 1451.3 28.3678C1450.23 28.3678 1449.32 27.8101 1449.35 27.0164C1449.37 26.2226 1447.2 25.6584 1444.44 25.619C1441.68 25.5797 1439.54 24.8777 1439.54 24.0249C1439.54 23.1721 1437.76 23.5657 1435.53 24.8581C1431.4 27.2591 1421.92 26.4784 1419.33 23.546C1418.31 22.3849 1416.2 22.5751 1411.76 24.202C1407.53 25.7831 1404.52 26.0783 1402.08 25.1664C1397.75 23.5395 1382.85 23.8544 1379.37 25.6453C1377.92 26.3932 1374.95 26.485 1372.79 25.8486C1365.5 23.7232 1358.21 24.1955 1355.88 26.9573C1353.23 30.0996 1348.12 30.3096 1346.55 27.3509C1345.55 25.4485 1345.07 25.5403 1343.66 27.902C1342.43 29.916 1340.38 30.6376 1336.41 30.4277C1329.05 30.0275 1326.86 29.1156 1330.13 27.8036C1334.69 26.0061 1331.6 25.4682 1321.82 26.3603C1315.43 26.9442 1310.99 26.6621 1307.91 25.4682C1302.6 23.4148 1283.04 22.7063 1281.31 24.5038C1279.58 26.3013 1265.85 27.1738 1237.98 27.305C1210.5 27.4362 1211 27.4362 1200.96 27.0557C1195.24 26.9084 1189.51 26.9216 1183.79 27.0951C1177.25 27.305 1173.71 26.8677 1173.18 25.7831C1172.68 24.7006 1174.83 24.2152 1179.8 24.2939C1186.36 24.3923 1186.89 24.1693 1184.71 22.2471C1182.66 20.4956 1182.72 19.8789 1185.02 18.967C1188.85 17.4516 1202.37 17.655 1203.21 19.2032C1203.88 20.4562 1228.25 17.983 1230.57 16.4283C1231.31 15.9362 1229.03 15.8772 1225.67 16.2905C1221.86 16.7563 1218.85 16.4742 1218.06 15.582C1216.53 13.837 1207.68 13.7058 1206.02 15.4049C1204.49 16.9727 1187.16 15.6541 1184.44 13.7583C1182.29 12.2691 1175.34 11.8624 1175.3 13.2269C1175.3 13.6795 1176.75 14.7816 1178.7 15.7919C1181.75 17.3729 1181.44 17.5238 1175.67 17.2023C1172.09 16.999 1169.22 16.5463 1169.23 16.179C1169.23 15.523 1153.29 15.1556 1151.33 15.7394C1149.05 16.0952 1146.71 16.3411 1144.34 16.4742C1140.94 16.7234 1138.06 17.4844 1137.67 18.2323C1136.89 19.7477 1125.75 18.4881 1122.04 16.461C1121.42 16.109 1120.64 15.8507 1119.78 15.7123C1118.92 15.574 1118 15.5607 1117.13 15.6738C1115.76 15.9428 1118.36 17.2417 1122.91 18.5406C1127.46 19.8395 1131.17 21.4271 1131.15 22.0438C1131.12 22.6604 1124.65 23.0737 1116.68 22.9556C1108.71 22.8375 1103.42 22.4833 1104.86 22.1618C1108.26 21.4009 1114.26 14.0469 1111.5 14.001C1110.28 14.001 1108.75 14.8866 1108.04 16.0674C1107.25 17.3795 1105.39 17.9043 1103.02 17.4516C1100.01 16.8743 1099.5 17.268 1100.47 19.4197C1101.51 21.7289 1100.77 22.0438 1095.01 21.7223C1092.47 21.541 1089.9 21.4817 1087.34 21.5452C1086.79 21.6436 1081.36 21.8535 1075.39 22.011C1063.43 22.3193 1045.87 23.5067 1041.86 24.2808C1040.55 24.5366 1034.5 24.0708 1028.56 23.2574C1021.2 22.2602 1016.44 22.1881 1013.93 23.0409C1011.41 23.8937 1009.54 23.8478 1007.97 22.7522C1006.25 21.5517 1004.23 21.5255 999.213 22.621C994.567 23.464 989.623 23.7309 984.756 23.4017C979.851 22.995 975.632 23.4542 973.719 24.6285C971.549 25.9405 968.814 26.1701 964.829 25.4222C954.737 23.5263 924.08 24.904 921.652 27.3903C920.561 28.499 919.752 28.289 918.893 26.6883C917.851 24.7531 915.484 24.471 902.952 24.7925C891.401 25.0877 888.237 24.7925 888.237 23.3164C888.112 22.7143 887.684 22.1415 887 21.6588C886.315 21.176 885.4 20.8013 884.35 20.5743C878.071 19.1638 879.678 17.2286 887.047 17.3336C890.628 17.386 894.675 16.7562 895.95 15.9428C897.667 14.8538 899.077 14.8866 901.223 16.0871C903.369 17.2876 905.159 17.3992 908.176 16.3889C910.996 15.4573 912.578 15.4836 913.449 16.4676C913.89 16.8645 914.607 17.1519 915.443 17.2674C916.279 17.3829 917.167 17.3171 917.912 17.0843C920.99 16.3233 941.653 15.641 957.57 15.7722C961.15 15.7722 964.155 15.2212 964.179 14.4996C964.179 13.0432 916.576 12.4659 915.129 13.9026C914.7 14.3356 909.709 14.0535 903.958 13.2466C896.941 12.4324 889.733 12.1979 882.584 12.5512C872.014 13.2466 848.776 14.106 842.718 14.0404C818.635 13.7517 812.834 14.0404 813.533 15.5492C813.865 16.2511 815.986 16.7759 817.948 16.6579C828.126 16.0609 864.754 16.7169 865.894 17.5173C868.421 19.2754 864.227 19.9051 848.089 20.1741C838.929 20.3316 827.549 20.7973 822.571 21.2172C811 22.0453 799.354 22.5424 787.684 22.7063C785.464 22.7523 777.518 23.218 769.732 23.7691C743.98 25.5797 730.847 25.7371 730.896 24.2545C730.819 23.8696 730.473 23.5144 729.927 23.2601C729.381 23.0059 728.676 22.8713 727.953 22.8835C722.974 22.8113 724.642 20.5349 730.663 19.1835C735.482 18.1011 735.568 17.9502 731.705 17.7731C729.314 17.6681 726.727 18.1995 725.991 18.9474C725.669 19.2898 725.128 19.5593 724.467 19.7072C723.806 19.8552 723.068 19.8719 722.386 19.7542C721.086 19.4328 719.234 19.9707 718.069 21.0138C716.377 22.5227 713.753 22.234 702.9 19.3344C695.543 17.3664 689.326 16.1134 688.762 16.4742C686.738 17.7862 594.033 16.9071 592.868 15.582C592.157 14.7685 595.468 14.27 601.231 14.3815C612.967 14.5586 618.092 12.971 614.303 10.3339C612.354 8.98246 611.422 8.93653 610.244 10.1436C608.454 11.9739 602.102 12.2035 574.057 11.4556C563.72 11.1735 552.439 11.4557 549.152 12.0395C543.144 13.1416 543.143 13.1416 552.071 14.1387C556.976 14.6832 565.964 15.5689 571.911 16.1068C577.859 16.6447 583.708 17.7075 584.775 18.4816C586.067 19.4262 585.131 19.6121 581.967 19.0392C579.281 18.5472 574.609 19.0392 571.176 20.1479C564.934 22.1881 525.019 22.667 520.593 20.7514C519.366 20.2397 515.921 20.4103 512.916 21.1253C509.103 22.0306 507.018 21.9978 506.147 21.0269C505.277 20.056 502.395 20.0101 497.993 20.7055C494.216 21.3025 471.935 29.2545 463.78 29.1299C454.78 29.037 458.166 21.788 449.261 22.4964C442.701 23.1524 445.46 26.708 414.399 22.9753C400.272 22.562 383.205 28.1644 381.414 29.0435C379.624 29.9225 379.855 24.8449 371.7 24.4382C356.593 23.6904 342.834 23.3951 334.692 23.651C327.114 23.8872 311.001 21.8863 309.823 20.5677C309.223 19.9117 314.41 19.7608 321.755 20.2791C332.681 21.0532 334.778 20.8695 334.839 19.1507C334.839 17.9568 336.163 17.1171 337.892 17.1433C342.65 17.2155 341.571 15.1753 335.832 13.3122C332.284 12.1751 329.832 12.0373 328.475 12.8989C327.077 13.7911 325.777 13.5877 324.318 12.2429C322.491 10.5635 320.639 10.5175 310.829 11.9083C304.624 12.7874 299.069 13.3122 298.652 13.0498C298.235 12.7873 296.666 13.4827 295.292 14.5258C292.545 16.6054 285.176 17.0777 285.237 15.1818C285.237 14.5258 273.134 13.9026 258.259 13.8042C231.584 13.6205 222.853 12.7021 232.066 11.0489L236.677 10.2223L231.846 8.82502C228.289 7.79507 224.488 7.93283 217.499 9.34327C211.69 10.4493 205.588 11.0517 199.423 11.1276C194.653 11.0555 189.527 11.5344 187.835 12.2166C185.714 13.0694 183.041 12.7021 178.92 10.9964C172.446 8.31988 164.046 9.28421 163.935 12.7217C163.862 14.9456 162.869 14.9522 157.804 12.7808C154.469 11.3638 153.451 11.4688 151.011 13.5221C149.466 14.8341 147.197 15.4902 146.106 15.0375C145.014 14.5848 144.021 14.716 143.996 15.4705C143.996 17.2286 153.083 17.4385 168.865 16.015C179.497 15.0637 218.075 14.9981 234.568 15.91C238.251 16.0825 241.963 15.9048 245.531 15.3852C251.736 14.3225 256.506 16.238 254.764 19.1048C253.869 20.5874 250.902 21.1647 244.734 21.0728C239.963 21.0007 235.512 21.2697 234.924 21.6567C234.335 22.0437 222.759 22.4177 209.172 22.4702C195.585 22.5226 180.87 23.1262 176.48 23.7822C170.564 24.6122 164.561 25.254 158.503 25.7043C149.318 26.3603 148.828 26.2619 152.372 24.4513C158.013 21.5714 154.898 20.2988 143.138 20.6792C137.363 20.8629 131.01 20.9417 128.803 20.8432C117.473 20.3578 112.629 20.7186 108.644 22.3521C104.658 23.9856 104.131 23.9528 103.383 21.7748C102.672 19.7018 100.93 19.4328 90.8014 19.8067C84.4249 20.0363 76.5401 20.161 73.5726 20.0823C70.605 20.0035 66.5215 19.9117 64.6208 19.8855L52.1866 19.6821C37.263 19.4263 -8.02266 18.744 -14.8774 18.6784C-18.4581 18.6456 -21.4625 19.1573 -21.487 19.8067C-21.487 21.5255 -28.8446 21.4205 -30.4142 19.6755C-31.6404 18.3635 -58.2625 18.1733 -77.2205 19.3672C-81.0096 19.6034 -85.093 19.3672 -86.1598 18.8358C-91.6412 16.1265 -97.1104 16.3495 -100.63 19.4262C-102.567 21.1188 -106.025 22.6342 -108.196 22.7063C-115.97 23.0475 -121.354 22.3258 -120.152 21.1056C-119.72 20.7476 -119.047 20.4925 -118.273 20.3935C-117.498 20.2945 -116.682 20.3593 -115.995 20.5743C-114.413 21.0007 -113.113 20.6924 -113.089 19.9183C-113.09 19.5297 -113.344 19.1535 -113.807 18.8543C-114.27 18.555 -114.914 18.3513 -115.627 18.2782C-137.074 16.7366 -140.863 16.9202 -140.949 19.505C-141.047 22.5489 -146.038 22.8769 -147.595 19.9379C-147.989 19.3654 -148.683 18.8659 -149.595 18.4994C-150.506 18.1328 -151.596 17.9148 -152.733 17.8715C-154.916 17.8715 -156.792 17.3204 -156.78 16.7497C-156.768 16.179 -160.03 15.6673 -164.211 15.6476C-168.278 15.6377 -172.309 15.2424 -176.118 14.4799C-179.478 13.6271 -180.582 13.8239 -180.631 15.3393C-180.68 16.8547 -182.384 17.1499 -188.135 16.5529L-195.579 15.7788L-189.595 17.5697C-186.051 18.7046 -181.587 19.3213 -179.392 18.9801C-176.302 18.5013 -175.382 19.1704 -174.941 22.2274C-174.389 26.1636 -173.715 26.2882 -160.778 25.1008C-155.382 24.6088 -153.42 24.8646 -154.033 25.9799C-154.142 26.1953 -154.332 26.3966 -154.591 26.5715C-154.85 26.7465 -155.173 26.8915 -155.54 26.9976C-155.907 27.1038 -156.311 27.1689 -156.726 27.189C-157.142 27.2091 -157.561 27.1839 -157.957 27.1148C-158.782 26.9804 -159.667 26.9993 -160.468 27.1685C-161.27 27.3376 -161.941 27.647 -162.372 28.0463C-162.964 28.4838 -163.753 28.8337 -164.667 29.0631C-165.581 29.2926 -166.588 29.3942 -167.596 29.3583C-170.122 29.319 -171.507 30.2308 -171.569 31.9496C-171.569 33.406 -172.734 34.5737 -174.021 34.5737C-175.812 34.5737 -175.824 34.9476 -174.021 36.1612C-170.857 38.3654 -171.164 39.9136 -174.745 39.8612C-176.339 39.8612 -177.712 39.2576 -177.688 38.6279C-177.602 35.971 -183.979 36.1153 -188.651 38.8837C-193.973 42.0326 -193.408 44.2302 -187.768 42.3147C-183.746 40.9436 -173.359 42.7083 -172.329 44.9387C-171.544 46.6247 -177.234 47.0577 -191.287 46.3951C-197.848 46.0868 -199.871 46.4541 -199.871 47.9761C-199.871 49.17 -198.767 49.6883 -197.026 49.2881C-195.481 48.9273 -192.562 49.6883 -190.809 50.9019C-188.086 52.7978 -188.001 53.4079 -190.331 54.3526C-191.839 54.9692 -195.235 55.166 -197.614 54.7724C-199.993 54.3788 -202.078 54.3526 -202.09 54.7068C-202.103 55.0611 -199.736 55.763 -196.768 56.255L-196.866 56.2747ZM-163.757 19.6886C-160.165 19.2885 -157.185 19.4984 -157.209 20.1479C-157.209 21.6829 -162.47 22.8506 -168.846 22.7719C-175.53 22.6735 -172.157 20.6333 -163.77 19.7018L-163.757 19.6886ZM-169.202 81.0525C-167.976 81.0525 -167.216 81.3214 -167.228 81.7085C-167.24 82.0955 -168.049 82.6138 -169.263 83.0664C-170.477 83.5191 -171.262 83.237 -171.238 82.4104C-171.213 81.5838 -170.343 81.0328 -169.202 81.0525ZM-160.618 66.7382C-158.423 69.1589 -158.436 70.6152 -160.618 70.5824C-162.605 70.5824 -164.64 66.502 -163.23 65.3737C-162.801 65.026 -161.562 65.6623 -160.581 66.7382H-160.618ZM-152.684 82.3251C-149.99 82.8734 -147.665 83.8425 -146.014 85.1066C-143.966 86.891 -143.561 86.8648 -142.335 84.8967C-141.292 83.1911 -140.324 83.0402 -138.227 84.2407C-134.107 86.6286 -138.815 89.8431 -143.733 87.9997C-146.038 87.1901 -148.694 86.7112 -151.446 86.6089C-153.837 86.5761 -155.125 86.012 -154.487 85.2969C-154.148 84.9546 -154.045 84.5596 -154.195 84.1807C-154.345 83.8018 -154.739 83.4632 -155.309 83.2239C-158.521 81.8594 -157.442 81.4854 -152.684 82.312V82.3251ZM-119.833 34.7442C-118.68 34.3047 -117.834 34.5737 -117.859 35.4002C-117.883 36.2268 -118.754 36.7779 -119.894 36.7582C-121.035 36.7385 -121.881 36.4892 -121.868 36.1022C-121.856 35.7151 -121.047 35.1969 -119.833 34.7442ZM-104.615 83.729C-99.4402 83.893 -97.6745 84.5228 -97.7358 86.1956C-97.8461 89.3773 -106.32 90.4073 -109.275 87.6126C-112.954 84.162 -112.169 83.4863 -104.615 83.7225V83.729ZM-85.2524 22.6538C-81.8679 22.7063 -81.6349 23.0081 -83.7318 24.6613C-84.4769 25.2113 -85.4408 25.6661 -86.5541 25.9928C-87.6674 26.3195 -88.9022 26.51 -90.1697 26.5506C-93.5542 26.4981 -93.7872 26.1963 -91.6903 24.5432C-90.9452 23.9931 -89.9813 23.5384 -88.868 23.2116C-87.7548 22.8849 -86.5199 22.6944 -85.2524 22.6538ZM-91.7148 84.8311C-91.4193 84.8399 -91.1307 84.882 -90.8679 84.9548C-90.605 85.0275 -90.3738 85.1292 -90.1896 85.2531C-90.0054 85.377 -89.8724 85.5204 -89.7992 85.6738C-89.7261 85.8272 -89.7144 85.9872 -89.7651 86.1432C-89.8042 86.5409 -90.0096 86.9289 -90.3661 87.2786C-90.7226 87.6283 -91.2212 87.9307 -91.8251 88.1637C-93.0514 88.6098 -93.8118 88.0653 -93.775 86.8517C-93.7382 85.638 -92.8675 84.8114 -91.7148 84.8311ZM-52.3151 24.9958C-50.2182 26.4916 -53.7622 27.4559 -57.3061 26.3603C-60.85 25.2648 -60.7518 25.2517 -57.1467 24.7203C-55.1479 24.4251 -52.916 24.5497 -52.3028 24.9893L-52.3151 24.9958ZM-43.7313 23.2705C-42.6031 23.2705 -41.8551 23.8281 -41.8797 24.6219C-41.9042 25.4157 -43.2163 25.9339 -45.0067 25.9011C-46.797 25.8683 -47.5696 25.3042 -46.8583 24.5497C-46.6005 24.2057 -46.1739 23.9053 -45.6235 23.6802C-45.0732 23.455 -44.4194 23.3135 -43.7313 23.2705ZM-43.9276 85.5396C-42.7013 85.5396 -41.9533 86.0972 -41.9778 86.891C-42.0024 87.6848 -42.8239 88.203 -44.0133 88.203C-45.2028 88.203 -45.9877 87.6454 -45.9632 86.8517C-45.9387 86.0579 -45.117 85.5396 -43.9276 85.5396ZM-1.27827 45.5226C2.08167 46.0868 2.08167 46.1327 -1.27827 47.0446C-2.37924 47.3085 -3.5773 47.4361 -4.78325 47.4179C-5.9892 47.3997 -7.17203 47.2362 -8.24348 46.9396C-11.5912 45.9228 -11.5912 45.8834 -8.24348 45.4176C-5.94031 45.1494 -3.54958 45.1854 -1.27827 45.5226ZM45.5647 87.7635C47.7352 88.1571 49.5011 89.0231 49.4766 89.6791C49.4766 90.9911 44.6819 91.2207 42.8916 89.9809C40.2674 88.1506 41.5916 87.0485 45.5525 87.7701L45.5647 87.7635ZM55.3748 84.9492C59.9242 85.9857 60.9052 89.7119 56.6011 89.6463C53.8175 89.6069 48.8879 85.5199 50.4698 84.5228C50.9235 84.2276 53.0449 84.4113 55.3748 84.9492ZM74.8232 48.2123C77.4106 48.2516 80.6971 47.8646 81.813 47.3857C82.5782 47.1394 83.4742 47.0354 84.3615 47.09C85.2487 47.1446 86.0773 47.3546 86.718 47.6875C89.8327 49.052 88.8517 49.4128 78.2568 50.7707C75.2525 51.1578 72.6283 52.4108 72.5915 53.4735C72.5547 54.5363 71.6473 55.4416 70.6295 55.4416C69.6118 55.4416 69.0231 53.7622 69.4033 51.781C69.8938 48.8748 70.9974 48.1598 74.8969 48.2188L74.8232 48.2123ZM98.9438 52.6207C102.782 54.3001 100.379 57.2128 95.265 57.121C90.1515 57.0291 90.0289 56.9439 93.5605 54.4444C95.5838 53.0143 98.0241 52.1943 98.9929 52.6207H98.9438ZM150.716 70.2676C154.493 70.3922 157.387 71.0154 157.044 71.6189C156.701 72.2225 155.818 72.7014 155.021 72.6489C154.223 72.5964 150.949 72.5243 147.565 72.4718C144.18 72.4193 141.998 71.8617 142.66 71.2056C143.322 70.5496 146.976 70.1363 150.753 70.2676H150.716ZM156.038 48.0548L172.188 47.202C172.969 47.1606 173.752 47.2701 174.396 47.5108C175.039 47.7514 175.5 48.1073 175.695 48.514C176.664 50.5149 170.103 52.05 167.7 50.3837C166.4 49.4827 164.9 49.7473 163.2 51.1775C161.029 53.0012 160.183 53.0668 157.608 51.6236C155.241 50.3115 153.672 50.2262 150.447 51.3218C148.227 52.0696 145.407 52.3255 144.315 51.8728C139.741 49.9048 143.42 48.7108 155.989 48.0548H156.038ZM146.008 94.9797C147.798 94.9797 148.57 95.5767 147.859 96.3311C147.601 96.6751 147.175 96.9755 146.624 97.2006C146.074 97.4258 145.42 97.5673 144.732 97.6103C143.604 97.6103 142.856 97.0527 142.881 96.2589C142.905 95.4652 144.217 94.9469 146.008 94.9797ZM164.34 91.5684C182.256 91.7455 195.745 93.2413 195.683 95.0519C195.61 97.2692 184.046 97.8727 179.533 95.8981C178.343 95.3202 176.862 94.9409 175.274 94.8069C173.686 94.6729 172.06 94.79 170.594 95.1437C167.069 95.7605 163.241 95.6553 159.852 94.8485C156.492 94.0875 152.813 93.2675 151.354 92.9592C145.958 91.8177 149.613 91.4241 164.34 91.5684ZM166.94 73.2918C168.865 74.6038 165.861 75.6928 163.261 74.6038C161.299 73.7444 161.287 73.3771 163.261 72.9966C163.866 72.8516 164.537 72.8048 165.191 72.862C165.845 72.9191 166.453 73.0777 166.94 73.318V73.2918ZM184.561 70.3725C185.284 70.3604 185.99 70.4949 186.535 70.7492C187.081 71.0034 187.427 71.3586 187.504 71.7436C187.415 72.1295 187.049 72.4818 186.484 72.7265C185.92 72.9711 185.199 73.0891 184.475 73.0556C183.752 73.0677 183.047 72.9332 182.501 72.6789C181.955 72.4247 181.609 72.0695 181.532 71.6845C181.622 71.2987 181.987 70.9464 182.552 70.7017C183.117 70.457 183.837 70.339 184.561 70.3725ZM206.205 48.1663C207.431 48.1663 208.179 48.724 208.154 49.5177C208.13 50.3115 207.308 50.8298 206.119 50.8298C204.929 50.8298 204.145 50.2722 204.169 49.4784C204.194 48.6846 205.015 48.1663 206.205 48.1663ZM216.861 92.723C222.256 92.0014 226.561 92.723 224.378 94.0022C222.195 95.2815 210.57 96.0359 210.607 94.8747C210.607 94.1466 213.452 93.1757 216.849 92.723H216.861ZM220.135 48.3763C222.33 48.3763 224.096 49.0323 224.071 49.7605C224.047 50.4886 222.232 51.0725 220.049 51.0266C217.866 50.9807 216.088 50.3706 216.113 49.6424C216.137 48.9142 217.952 48.3304 220.135 48.3763ZM227.897 96.1933C229.859 94.7239 233.354 93.6218 235.929 93.6611C244.096 93.7792 240.626 96.0949 226.769 99.7686C223.311 100.687 223.74 99.3094 227.897 96.1933ZM235.439 49.1372C237.364 50.4493 234.36 51.5383 231.76 50.4493C229.798 49.5899 229.786 49.2225 231.76 48.842C232.365 48.6971 233.035 48.6503 233.689 48.7074C234.343 48.7646 234.952 48.9231 235.439 49.1635V49.1372ZM251.576 96.5476C253.17 96.5476 254.029 97.2036 253.317 97.899C252.606 98.5944 251.368 98.9092 250.313 98.4566C247.48 97.2561 247.995 96.4885 251.539 96.5476H251.576ZM368.193 49.0585L384.331 48.8224C396.483 48.6452 401.229 49.3931 401.167 51.4858C401.167 52.5617 396.434 53.0668 386.685 53.0602C379.868 53.0182 373.051 53.1825 366.268 53.5522C362.871 53.8409 359.082 53.7425 357.513 53.3292C353.233 52.2009 360.836 49.1635 368.205 49.0585H368.193ZM415.085 96.2917C418.334 96.2739 421.55 95.9405 424.577 95.3077C429.2 94.1597 433.553 94.9338 433.479 96.8953C433.479 97.6431 431.75 97.9055 429.58 97.4988C428.454 97.3125 427.248 97.3186 426.13 97.5161C425.011 97.7136 424.035 98.0928 423.338 98.6009C420.138 101.041 409.469 100.779 409.555 98.2663C409.555 97.0396 411.713 96.2983 415.098 96.2983L415.085 96.2917ZM434.374 49.2094C449.887 49.708 457.784 50.4821 458.286 51.5514C458.789 52.6207 455.356 52.9159 445.815 52.2927C437.072 51.7219 431.615 51.9581 429.666 52.9487C427.434 54.123 426.183 54.1164 424.491 52.9487C423.264 52.1156 419.672 51.3546 416.679 51.3087C413.687 51.2627 411.125 50.5805 411.149 49.8326C411.149 48.9404 419.451 48.7043 434.362 49.1766L434.374 49.2094ZM438.703 95.3864C440.297 95.3864 441.156 96.0424 440.444 96.7378C439.733 97.4332 438.495 97.7481 437.44 97.2954C434.607 96.0949 435.122 95.3274 438.666 95.3864H438.703ZM447.458 95.5176C448.599 95.5176 449.433 96.1737 449.408 96.9346C449.384 97.6956 448.525 97.9711 447.397 97.4988C446.436 97.1767 445.742 96.6695 445.46 96.0818C445.46 95.721 446.281 95.498 447.471 95.5176H447.458ZM468.047 94.4483C470.034 94.4483 471.076 95.1043 470.39 95.8063C469.703 96.5082 466.711 97.079 463.78 97.033C459.599 96.974 459.083 96.6657 461.438 95.6751C463.36 94.9195 465.664 94.4919 468.047 94.4483ZM488.894 25.1008C491.469 25.5666 493.995 25.3566 494.706 24.6219C496.264 23.0081 507.668 23.1262 511.396 24.7925C513.946 25.9339 513.934 26.1898 511.334 26.708C505.927 27.7839 487.508 28.4399 484.627 27.6527C480.016 26.3997 483.744 24.1758 488.894 25.1074V25.1008ZM487.312 96.0621C488.452 96.0621 489.286 96.7181 489.25 97.4791C489.213 98.2401 488.367 98.5156 487.238 98.0433C486.277 97.7212 485.583 97.214 485.301 96.6263C485.301 96.2655 486.122 96.0424 487.312 96.0621ZM589.275 95.3208C590.894 95.7604 590.502 96.049 588.049 96.0949C586.062 96.1343 584.836 95.8063 585.486 95.393C586.136 94.9797 587.939 94.9403 589.275 95.3143V95.3208ZM593.408 19.459C593.94 19.449 594.471 19.4992 594.964 19.6062C595.458 19.7133 595.904 19.8749 596.273 20.0804C596.643 20.2859 596.927 20.5308 597.107 20.799C597.287 21.0673 597.36 21.3528 597.32 21.637C597.32 23.2246 596.584 23.382 594.609 22.2602C593.236 21.4861 591.335 21.1712 590.649 21.6042C589.962 22.0372 589.349 21.7157 589.422 20.9482C589.496 20.1807 591.262 19.4525 593.457 19.4853L593.408 19.459ZM600.066 28.8335C601.527 28.8609 602.989 28.839 604.444 28.7679C605.204 28.7089 606.185 29.3255 606.59 30.1259C606.995 30.9262 604.947 31.556 602.163 31.5166C599.38 31.4773 597.013 30.8606 597.037 30.1128C597.127 29.7269 597.492 29.3746 598.057 29.1299C598.622 28.8852 599.342 28.7672 600.066 28.8007V28.8335ZM618.877 27.7905C620.864 27.7905 622.887 27.2985 623.267 26.6621C624.052 25.3501 642.593 24.0905 664.96 23.8347C673.127 23.7428 683.244 23.4017 687.278 23.0868C695.457 22.4308 696.242 22.8572 692.085 25.5666C689.326 27.364 675.555 28.2628 641.097 28.8926C631.937 29.0631 623.169 29.8307 621.734 30.5917C618.497 32.3039 612.059 31.0246 613.984 29.0435C614.552 28.6382 615.295 28.3126 616.149 28.0944C617.003 27.8762 617.944 27.7719 618.889 27.7905H618.877ZM622.642 96.7444C623.868 96.7444 624.628 97.0134 624.616 97.4004C624.604 97.7875 623.794 98.2991 622.581 98.7584C621.367 99.2176 620.582 98.9289 620.606 98.1023C620.631 97.2758 621.501 96.7247 622.642 96.7444ZM700.926 21.0532C702.067 21.0532 702.802 21.6108 702.778 22.4046C702.753 23.1983 701.441 23.7166 699.651 23.6838C697.86 23.651 697.088 23.0934 697.799 22.3324C698.057 21.9884 698.484 21.688 699.034 21.4629C699.584 21.2377 700.238 21.0962 700.926 21.0532ZM823.552 27.4428C831.118 27.5084 836.844 26.7868 840.45 25.3107C845.698 23.159 845.98 23.1721 848.003 25.8224C849.831 28.2103 849.499 28.7089 845.49 29.6273C842.951 30.2112 835.508 30.4801 828.948 30.2374C813.239 29.6404 812.05 29.5158 812.087 28.4071C812.087 27.8167 817.2 27.3903 823.564 27.4493L823.552 27.4428ZM864.018 24.5301C866.826 23.756 871.082 22.562 873.669 21.847C879.077 20.325 881.223 21.473 882.927 26.7933L884.154 30.5195L870.665 29.4961C854.723 28.289 848.837 27.1082 855.042 26.38C858.165 25.9349 861.191 25.3126 864.067 24.5235L864.018 24.5301ZM854 47.5C859.224 46.247 864.999 43.9875 865.894 46.5C867.121 49.8326 876.078 43.3594 868.5 42.5C860.566 41.6013 846.397 49.3237 854 47.5ZM909.635 89.0559C910.861 89.0559 911.609 89.6135 911.585 90.4073C911.56 91.201 910.739 91.7193 909.549 91.7193C908.36 91.7193 907.575 91.1617 907.6 90.3679C907.624 89.5741 908.446 89.0559 909.635 89.0559ZM1013.14 30.2112C1020.12 30.0996 1023.09 30.5654 1023.05 31.7725C1022.98 34.0685 1018.97 34.8689 1011.83 33.9964C997.386 32.2382 998.012 30.4539 1013.16 30.2112H1013.14ZM1035.8 31.3461C1038.39 31.3854 1041.21 30.9 1041.81 30.3096C1042.41 29.7191 1048.12 29.1878 1054.3 29.1681C1060.87 29.1681 1066.34 28.453 1067.3 27.5084C1068.62 26.1963 1069.33 26.2816 1070.86 27.8954C1071.8 28.8156 1072.45 29.8101 1072.79 30.8409C1072.79 32.8746 1065.08 34.2916 1058.33 33.465C1053.6 33.0219 1048.74 33.2089 1044.18 34.0095C1037.36 35.3674 1030.83 34.5933 1030.89 32.4482C1030.89 31.7922 1033.22 31.287 1035.79 31.3264L1035.8 31.3461ZM1050.52 101.763C1051.75 101.763 1052.49 102.321 1052.47 103.114C1070.86 101.743 1062.28 99.8605 1061.08 99.8605C1059.88 99.8605 1048.46 103.869 1048.48 103.075C1048.51 102.281 1049.33 101.763 1050.52 101.763ZM1091.48 28.4333C1104.43 28.2365 1104.72 28.3087 1104.61 31.5429C1104.49 35.1182 1100.93 36.0235 1097.18 33.4191C1095.88 32.5072 1090.77 31.8184 1085.58 31.8578C1078.81 31.9037 1076.58 31.4773 1077.26 30.2768C1077.87 29.2403 1083.09 28.558 1091.46 28.4333H1091.48ZM1147.81 19.7346C1152.79 19.8067 1154.25 21.7026 1150.48 23.1721C1147.73 24.2611 1142.73 22.8441 1142.8 20.9876C1142.8 20.2463 1145.03 19.6755 1147.81 19.7346ZM1175.6 18.8161C1176.14 18.8161 1176.96 19.3672 1177.65 20.1741C1178.33 20.981 1177.9 21.4861 1176.7 21.4861C1176.4 21.4707 1176.11 21.423 1175.84 21.346C1175.57 21.269 1175.33 21.1641 1175.14 21.0377C1174.95 20.9112 1174.81 20.7655 1174.73 20.6094C1174.64 20.4532 1174.62 20.2896 1174.65 20.1282C1174.65 19.3344 1175.06 18.8161 1175.6 18.8161ZM1283.86 29.0566C1285 28.6105 1286.4 29.2009 1287.09 30.408C1288.51 32.9468 1286.91 34.2916 1283.94 33.032C1283.35 32.8072 1282.86 32.5106 1282.53 32.1665C1282.19 31.8224 1282.02 31.4407 1282.01 31.0527C1282 30.6647 1282.17 30.2814 1282.49 29.9345C1282.82 29.5875 1283.29 29.2866 1283.88 29.0566H1283.86ZM1376.55 31.8578C1381.56 30.6704 1383.34 31.0115 1383.27 33.1698C1383.27 34.4425 1381.41 35.1378 1378.23 35.0854C1372.66 35.0001 1371.63 33.0386 1376.55 31.8774V31.8578ZM1378.84 105.988C1380.06 105.528 1380.36 105.988 1379.62 107.195C1378.23 109.425 1376.73 109.819 1376.79 107.949C1376.84 107.56 1377.05 107.181 1377.41 106.841C1377.76 106.5 1378.26 106.207 1378.85 105.981L1378.84 105.988ZM1483.55 29.4633C1489.95 28.4268 1490.91 28.5842 1490.91 30.6441C1490.91 32.704 1485.42 33.9242 1481.48 32.9664C1477.53 32.0086 1478.58 30.2702 1483.59 29.4567L1483.55 29.4633ZM1500.13 27.7577C1504.55 26.5112 1505.84 26.5506 1507.09 27.9742C1508.34 29.3977 1509.19 29.3583 1511.07 28.1644C1514.41 26.0389 1516.9 26.1307 1516.83 28.3809C1516.73 31.2739 1511.72 32.4941 1502.78 31.7987C1493.44 31.0705 1492.65 29.8307 1500.13 27.7577ZM1571.68 20.1413C1575.89 19.5378 1577.04 19.7674 1576.33 21.0466C1575.8 22.0044 1572.38 22.9031 1568.59 23.0868C1560.7 23.4739 1562.88 21.4009 1571.68 20.1413ZM1612.71 22.6473C1614.91 22.6473 1616.22 23.3033 1615.56 24.0118C1615.13 24.3923 1614.52 24.7081 1613.8 24.9296C1613.08 25.151 1612.27 25.2709 1611.43 25.2779C1610.72 25.2942 1610.02 25.1605 1609.49 24.9056C1608.96 24.6506 1608.64 24.2945 1608.59 23.9134C1608.59 23.2049 1610.53 22.6014 1612.71 22.6473ZM1810.2 7.69011C1812.41 4.00986 1815.57 2.50758 1817.23 4.35098C1818 5.21037 1822.37 7.55042 1825.58 6.78944C1833.01 5.02476 1833.48 3.85304 1833.41 6.1491C1833.36 6.39211 1833.91 7.56403 1836.3 6.1491C1836.43 6.38292 1836.65 6.60053 1836.94 6.78944C1837.23 6.97836 1837.59 7.13487 1837.99 7.25002C1838.39 7.36517 1838.83 7.4367 1839.29 7.46049C1846.01 7.5589 1840.73 11.8624 1831.93 13.4696C1820.11 15.6214 1815.99 15.4836 1815.99 12.9448C1815.99 11.4884 1815.25 11.2457 1813.03 12.0395C1811.34 12.643 1806.74 12.7546 1802.57 12.2822L1795.13 11.4425L1801.71 11.1408C1806.5 10.9243 1808.81 9.97961 1810.19 7.69011H1810.2ZM1850.41 11.8217C1843.41 11.8217 1836.14 19.5378 1837.99 20.5087C1841.41 22.2537 1864.67 30.7229 1859.41 32.9664C1853.95 35.2953 1868.94 16.2052 1866.32 13.6926C1863.09 10.5897 1850.92 15.5363 1855.91 15.0968L1850.41 11.8217Z" fill="#FF8E28"/>
</svg>
