<svg width="22" height="17" viewBox="0 0 22 17" fill="none" xmlns="http://www.w3.org/2000/svg">
<path d="M0 3.16667C0 2.45942 0.280952 1.78115 0.781049 1.28105C1.28115 0.780951 1.95942 0.5 2.66667 0.5H18.6667C19.3739 0.5 20.0522 0.780951 20.5523 1.28105C21.0524 1.78115 21.3333 2.45942 21.3333 3.16667V13.8333C21.3333 14.5406 21.0524 15.2189 20.5523 15.719C20.0522 16.219 19.3739 16.5 18.6667 16.5H2.66667C1.95942 16.5 1.28115 16.219 0.781049 15.719C0.280952 15.2189 0 14.5406 0 13.8333V3.16667ZM2.66667 1.83333C2.31304 1.83333 1.97391 1.97381 1.72386 2.22386C1.47381 2.47391 1.33333 2.81304 1.33333 3.16667V3.456L10.6667 9.056L20 3.456V3.16667C20 2.81304 19.8595 2.47391 19.6095 2.22386C19.3594 1.97381 19.0203 1.83333 18.6667 1.83333H2.66667ZM20 5.01067L13.656 8.81733L20 12.652V5.01067ZM19.9547 14.1813L12.3613 9.59333L10.6667 10.6107L8.97067 9.59333L1.37867 14.18C1.45493 14.4632 1.62246 14.7134 1.85532 14.8918C2.08817 15.0702 2.37334 15.1668 2.66667 15.1667H18.6667C18.9598 15.1669 19.2449 15.0704 19.4777 14.8923C19.7105 14.7142 19.8782 14.4643 19.9547 14.1813ZM1.33333 12.652L7.67733 8.81733L1.33333 5.01067V12.652Z" fill="white"/>
</svg>
