<svg width="35" height="30" viewBox="0 0 35 30" fill="none" xmlns="http://www.w3.org/2000/svg">
<path d="M31.0345 12.5806V26.6129L23.4207 19.0357L21.9621 20.4873L29.4414 27.941H3.78621L11.0276 20.4873L9.53793 19.0563L2.06897 26.7467V8.91558L14.9276 21.6507C15.3152 22.0341 15.8396 22.2494 16.3862 22.2494C16.9328 22.2494 17.4572 22.0341 17.8448 21.6507L26.9793 12.6115C26.2503 12.4222 25.5532 12.1273 24.9103 11.7364L16.3655 20.1887L3.42414 7.35072H21.5276C21.3276 6.68198 21.2197 5.98932 21.2069 5.2917H2.06897C1.52024 5.2917 0.993992 5.50863 0.605986 5.89477C0.21798 6.28091 0 6.80463 0 7.35072V27.941C0 28.4871 0.21798 29.0108 0.605986 29.3969C0.993992 29.7831 1.52024 30 2.06897 30H31.0345C31.5832 30 32.1095 29.7831 32.4975 29.3969C32.8855 29.0108 33.1035 28.4871 33.1035 27.941V11.6747C32.4623 12.0762 31.7651 12.3815 31.0345 12.5806Z" fill="#FFA101"/>
<path d="M28.9655 10.2951C31.8222 10.2951 34.1379 7.99049 34.1379 5.14756C34.1379 2.30464 31.8222 0 28.9655 0C26.1089 0 23.7931 2.30464 23.7931 5.14756C23.7931 7.99049 26.1089 10.2951 28.9655 10.2951Z" fill="#FFA101"/>
</svg>
