<svg width="153" height="155" viewBox="0 0 153 155" fill="none" xmlns="http://www.w3.org/2000/svg">
<g opacity="0.15">
<path d="M50.3696 0.404701C27.4909 6.60402 8.79826 23.7534 0.645674 46.0234C-0.108056 47.9552 1.0317 50.3009 3.01887 50.9032L44.4733 64.3748C45.6609 64.7606 46.9367 64.1117 47.3231 62.9252C47.7095 61.7403 47.06 60.465 45.8725 60.0783L16.6873 50.594C23.5322 34.1965 37.3571 21.5243 54.31 16.1194L61.1668 38.3061C56.445 40.7138 54.0524 46.719 55.8636 51.7225C57.5654 56.7285 62.5527 59.7558 67.6266 59.2092L70.3534 68.0339L55.9223 63.3441C54.7347 62.9583 53.459 63.6072 53.0725 64.7936C52.6863 65.9798 53.3356 67.2542 54.5232 67.6406L70.3363 72.7794C73.1224 73.793 76.073 70.8728 75.1026 68.0886C69.0301 48.4366 61.0548 22.6302 54.9655 2.92716C54.3624 0.975354 52.3435 -0.132236 50.3696 0.404701ZM12.3687 49.1899L5.16398 46.8487C12.9016 26.4805 29.8994 10.8963 50.8604 4.95757L52.9744 11.7983C34.6261 17.6352 19.6793 31.3966 12.3687 49.1899ZM60.1449 50.2689C59.1819 47.5874 60.2212 44.384 62.5418 42.7569L66.2499 54.7556C63.557 54.6801 61.0571 52.9523 60.1449 50.2689Z" fill="url(#paint0_linear)"/>
<path d="M65.9443 8.86396C64.886 9.05647 63.9586 9.69433 63.3999 10.6136C62.8405 11.5337 62.7019 12.6517 63.0202 13.6799L75.9628 55.5597C75.9646 55.5655 75.967 55.5711 75.9691 55.5769L79.4233 66.7535C79.7919 67.9454 81.0577 68.6133 82.2511 68.2454C83.4439 67.8772 84.1124 66.6136 83.7445 65.4205L80.8909 56.1872C82.8931 55.1152 84.5177 53.4613 85.561 51.3912C86.2673 49.9896 86.663 48.4881 86.7428 46.9672C86.8145 45.6014 86.6309 44.2202 86.1882 42.8829C84.5256 37.8423 79.534 34.7659 74.4343 35.2975L71.1643 24.7178C74.7928 24.2044 78.4824 24.0357 82.168 24.2287C113.544 25.8713 137.732 52.7081 136.087 84.0524C134.443 115.397 107.579 139.561 76.2038 137.918C44.8283 136.275 20.6401 109.438 22.2845 78.0942C22.4779 74.4074 23.0325 70.7531 23.9251 67.197L84.1236 86.7617C85.467 87.1987 86.9272 86.8545 87.934 85.8643C88.6175 85.1913 89.006 84.3057 89.0541 83.3835C89.0769 82.948 89.0238 82.5043 88.8902 82.0711L86.8575 75.4941C86.4889 74.3022 85.2231 73.6343 84.0297 74.0021C82.837 74.3704 82.1693 75.6347 82.5363 76.8271L84.1403 82.0167L13.0799 58.9218C11.1074 58.237 8.79637 59.4801 8.27948 61.5009C6.60394 67.5382 5.71052 73.8131 5.62184 80.1533C5.46011 91.8797 8.13335 103.585 13.3518 114.003C13.9106 115.119 15.269 115.571 16.3857 115.013C17.5024 114.454 17.9546 113.097 17.396 111.982C12.4298 102.067 9.98999 91.3795 10.144 80.2154C10.2234 74.5292 10.9926 68.8947 12.4327 63.4621L19.6139 65.796C18.6051 69.7297 17.9826 73.7761 17.7685 77.8581C15.9936 111.69 42.1015 140.657 75.9672 142.43C109.833 144.203 138.829 118.121 140.603 84.2891C142.378 50.4572 116.27 21.4905 82.4047 19.7175C78.1858 19.4966 73.9599 19.7099 69.8135 20.347L67.5927 13.1617C71.7053 12.4665 75.9185 12.1442 80.1299 12.2018C98.5677 12.4554 115.803 19.8673 128.662 33.0726C141.521 46.2779 148.463 63.6948 148.21 82.1145C147.68 120.14 116.291 150.652 78.2266 150.129C56.131 149.825 35.3485 138.841 22.6335 120.747C21.916 119.726 20.5058 119.48 19.4837 120.197C18.4611 120.914 18.2151 122.323 18.9323 123.343C25.4859 132.669 34.242 140.455 44.2542 145.86C54.6011 151.445 66.327 154.483 78.1644 154.646C97.8116 154.916 116.388 147.527 130.472 133.839C143.859 120.828 151.664 103.61 152.635 85.0801C152.686 84.1165 152.718 83.1467 152.731 82.1763C153.001 62.5499 145.605 43.9924 131.904 29.9221C118.203 15.8515 99.8381 7.954 80.1924 7.68396C75.4027 7.61837 70.6089 8.01552 65.9443 8.86396ZM81.894 44.2985L81.8951 44.3015C82.4512 45.9822 82.3189 47.7782 81.522 49.3593C81.0411 50.3137 80.3531 51.12 79.5138 51.7308L75.8128 39.7563C78.5123 39.8488 81.0052 41.601 81.894 44.2985Z" fill="url(#paint1_linear)"/>
<path d="M48.5116 90.3246C48.7987 84.8519 44.5753 80.166 39.0971 79.8792C33.6189 79.5924 28.9284 83.8116 28.6413 89.2843C28.3542 94.757 32.5776 99.4429 38.0558 99.7297C43.534 100.017 48.2245 95.7973 48.5116 90.3246ZM33.1573 89.5207C33.3139 86.5356 35.8724 84.2342 38.8605 84.3907C41.8485 84.5471 44.1522 87.1031 43.9956 90.0882C43.839 93.0733 41.2805 95.3747 38.2924 95.2182C35.3044 95.0618 33.0007 92.5055 33.1573 89.5207Z" fill="url(#paint2_linear)"/>
<path d="M131.271 83.8002C131.558 78.3275 127.334 73.6416 121.856 73.3548C116.378 73.068 111.687 77.2872 111.4 82.7599C111.113 88.2326 115.337 92.9185 120.815 93.2053C126.293 93.4921 130.984 89.2729 131.271 83.8002ZM115.916 82.9963C116.073 80.0112 118.631 77.7098 121.619 77.8663C124.608 78.0227 126.911 80.5787 126.755 83.5638C126.598 86.5489 124.04 88.8503 121.051 88.6938C118.063 88.5374 115.76 85.9811 115.916 82.9963Z" fill="url(#paint3_linear)"/>
<path d="M65.5854 127.409C71.0636 127.696 75.7542 123.477 76.0413 118.004C76.3284 112.532 72.105 107.846 66.6268 107.559C61.1486 107.272 56.458 111.491 56.1709 116.964C55.8838 122.437 60.1072 127.123 65.5854 127.409ZM60.6869 117.201C60.8435 114.215 63.402 111.914 66.3901 112.07C69.3782 112.227 71.6819 114.783 71.5253 117.768C71.3687 120.753 68.8101 123.054 65.8221 122.898C62.834 122.742 60.5303 120.185 60.6869 117.201Z" fill="url(#paint4_linear)"/>
<path d="M115.495 114.038C115.782 108.565 111.559 103.88 106.081 103.593C100.603 103.306 95.9121 107.525 95.625 112.998C95.3379 118.471 99.5613 123.156 105.04 123.443C110.518 123.73 115.208 119.511 115.495 114.038ZM100.141 113.234C100.298 110.249 102.856 107.948 105.844 108.104C108.832 108.261 111.136 110.817 110.979 113.802C110.823 116.787 108.264 119.088 105.276 118.932C102.288 118.775 99.9844 116.219 100.141 113.234Z" fill="url(#paint5_linear)"/>
<path d="M97.3483 46.0015C97.3071 44.7547 96.2625 43.7768 95.0144 43.8179C93.7661 43.859 92.7859 44.9055 92.8287 46.1494C92.9962 51.2599 97.1358 55.4727 102.252 55.7406C107.73 56.0274 112.421 51.8082 112.708 46.3355C112.995 40.8627 108.771 36.1769 103.293 35.8901C101.665 35.6314 99.733 36.4347 99.8976 38.3379C100.013 39.9813 101.602 40.6044 103.056 40.4015C106.045 40.558 108.348 43.1139 108.192 46.099C108.035 49.0841 105.477 51.3855 102.488 51.2291C99.6976 51.0833 97.4397 48.787 97.3483 46.0015Z" fill="url(#paint6_linear)"/>
<path d="M52.7742 101.52C53.0811 101.644 60.3527 104.522 65.6338 101.217C70.889 97.9288 71.6463 90.0707 71.6761 89.7381C71.6785 89.7102 71.6805 89.6829 71.682 89.6555C71.7323 88.6966 71.1688 87.8067 70.2725 87.444C69.9654 87.32 62.6937 84.4415 57.4123 87.7464C52.1574 91.0354 51.4001 98.8933 51.3703 99.2259C51.2784 100.219 51.8522 101.147 52.7742 101.52ZM56.1794 97.8581C56.6659 95.7706 57.7531 92.8638 59.8129 91.5744C61.845 90.3028 64.8373 90.6142 66.8671 91.1053C66.3805 93.1928 65.2934 96.0996 63.2333 97.3887C61.2012 98.6603 58.2092 98.3486 56.1794 97.8581Z" fill="url(#paint7_linear)"/>
<path d="M92.4176 68.3498C89.819 73.9756 93.488 80.9665 93.6458 81.2615C94.1139 82.1383 95.101 82.6065 96.0771 82.4149C96.402 82.3507 104.066 80.7865 106.677 75.1338C107.251 73.8906 107.519 72.5816 107.587 71.2922C107.825 66.7464 105.571 62.452 105.449 62.2224C104.98 61.3456 103.994 60.8774 103.017 61.0691C102.692 61.1326 95.0287 62.6971 92.4176 68.3498ZM102.571 73.2408C101.566 75.4158 98.8906 76.79 96.9224 77.4886C96.1873 75.475 95.5057 72.4472 96.5237 70.2428C97.5284 68.0675 100.204 66.6933 102.172 65.9947C102.907 68.0083 103.589 71.0352 102.571 73.2408Z" fill="url(#paint8_linear)"/>
<path d="M88.6996 91.4814C88.054 90.725 86.9897 90.4789 86.0775 90.8751C85.7738 91.0067 78.6236 94.1748 77.2851 100.255C75.9533 106.306 81.0359 112.35 81.2529 112.604C81.8986 113.361 82.9628 113.607 83.8751 113.211C84.1787 113.079 91.3289 109.911 92.6674 103.831C92.7816 103.312 92.8486 102.793 92.8756 102.278C93.1634 96.7863 88.8978 91.7137 88.6996 91.4814ZM83.6446 108.218C82.4945 106.408 81.1805 103.597 81.702 101.226C82.2169 98.8859 84.5353 96.971 86.3079 95.8677C87.458 97.6771 88.7725 100.49 88.2506 102.86C87.7357 105.2 85.4169 107.114 83.6446 108.218Z" fill="url(#paint9_linear)"/>
<path d="M48.5867 47.6672C48.6046 47.3253 48.5447 46.9765 48.4014 46.6475C48.2691 46.3441 45.0912 39.2043 39.0034 37.8726C32.9457 36.5475 26.9002 41.6313 26.6457 41.8484C25.8895 42.4937 25.6441 43.5572 26.0413 44.4683C26.1736 44.7717 29.3514 51.9112 35.4393 53.2429C41.497 54.568 47.5425 49.4845 47.7969 49.2674C48.2804 48.8551 48.5549 48.2721 48.5867 47.6672ZM36.4065 48.8297C34.0641 48.3174 32.1453 46.003 31.0391 44.2336C32.8489 43.0824 35.6619 41.7664 38.0365 42.2855C40.3759 42.797 42.2931 45.1066 43.4 46.8754C41.7309 47.9443 38.9068 49.3765 36.4065 48.8297Z" fill="url(#paint10_linear)"/>
<path d="M86.6685 131.228C90.4036 131.423 93.6018 128.546 93.7975 124.815C93.9933 121.084 91.1136 117.889 87.3786 117.693C83.6435 117.498 80.4453 120.374 80.2496 124.106C80.0538 127.837 82.9335 131.032 86.6685 131.228ZM84.7656 124.342C84.8308 123.098 85.8967 122.139 87.1419 122.205C88.3871 122.27 89.3468 123.335 89.2815 124.579C89.2163 125.823 88.1504 126.781 86.9052 126.716C85.66 126.651 84.7003 125.586 84.7656 124.342Z" fill="url(#paint11_linear)"/>
<path d="M51.9784 110.562C52.1741 106.831 49.2947 103.636 45.5594 103.44C41.8241 103.245 38.6261 106.121 38.4304 109.853C38.2346 113.584 41.114 116.779 44.8494 116.975C48.5847 117.17 51.7826 114.293 51.9784 110.562ZM42.9464 110.089C43.0116 108.845 44.0775 107.886 45.3227 107.952C46.5679 108.017 47.5276 109.082 47.4624 110.326C47.3971 111.569 46.3313 112.528 45.086 112.463C43.8408 112.398 42.8811 111.333 42.9464 110.089Z" fill="url(#paint12_linear)"/>
<path d="M47.9342 23.6427C44.1989 23.4471 41.001 26.324 40.8052 30.0553C40.6095 33.7866 43.4889 36.9816 47.2242 37.1771C50.9595 37.3727 54.1574 34.4959 54.3532 30.7646C54.5489 27.0333 51.6695 23.8383 47.9342 23.6427ZM47.4609 32.6656C46.2157 32.6005 45.2559 31.5357 45.3212 30.2917C45.3865 29.0477 46.4523 28.089 47.6975 28.1542C48.9427 28.2194 49.9025 29.2842 49.8372 30.5281C49.7719 31.7721 48.7061 32.7308 47.4609 32.6656Z" fill="url(#paint13_linear)"/>
<path d="M112.513 61.5559C112.317 65.2872 115.197 68.4823 118.932 68.6778C122.667 68.8734 125.865 65.9965 126.061 62.2652C126.256 58.534 123.377 55.3389 119.642 55.1434C115.907 54.9478 112.708 57.8243 112.513 61.5559ZM121.545 62.0288C121.479 63.2728 120.414 64.2315 119.168 64.1663C117.923 64.1011 116.963 63.0363 117.029 61.7924C117.094 60.5484 118.16 59.5897 119.405 59.6549C120.65 59.72 121.61 60.7848 121.545 62.0288Z" fill="url(#paint14_linear)"/>
<path d="M109.62 93.6748C109.816 89.9435 106.936 86.7485 103.201 86.5529C99.4661 86.3574 96.2679 89.2342 96.0722 92.9655C95.8764 96.6968 98.7561 99.8918 102.491 100.087C106.226 100.283 109.424 97.4061 109.62 93.6748ZM100.588 93.2019C100.653 91.9579 101.719 90.9992 102.964 91.0644C104.21 91.1296 105.169 92.1944 105.104 93.4383C105.039 94.6823 103.973 95.6411 102.728 95.5759C101.483 95.5107 100.523 94.4456 100.588 93.2019Z" fill="url(#paint15_linear)"/>
</g>
<defs>
<linearGradient id="paint0_linear" x1="-0.996918" y1="74.0389" x2="143.561" y2="139.794" gradientUnits="userSpaceOnUse">
<stop offset="0.268065" stop-color="#FF8E28"/>
<stop offset="1" stop-color="#FCAC23" stop-opacity="0"/>
</linearGradient>
<linearGradient id="paint1_linear" x1="-0.996918" y1="74.0389" x2="143.561" y2="139.794" gradientUnits="userSpaceOnUse">
<stop offset="0.268065" stop-color="#FF8E28"/>
<stop offset="1" stop-color="#FCAC23" stop-opacity="0"/>
</linearGradient>
<linearGradient id="paint2_linear" x1="-0.996918" y1="74.0389" x2="143.561" y2="139.794" gradientUnits="userSpaceOnUse">
<stop offset="0.268065" stop-color="#FF8E28"/>
<stop offset="1" stop-color="#FCAC23" stop-opacity="0"/>
</linearGradient>
<linearGradient id="paint3_linear" x1="-0.996918" y1="74.0389" x2="143.561" y2="139.794" gradientUnits="userSpaceOnUse">
<stop offset="0.268065" stop-color="#FF8E28"/>
<stop offset="1" stop-color="#FCAC23" stop-opacity="0"/>
</linearGradient>
<linearGradient id="paint4_linear" x1="-0.996918" y1="74.0389" x2="143.561" y2="139.794" gradientUnits="userSpaceOnUse">
<stop offset="0.268065" stop-color="#FF8E28"/>
<stop offset="1" stop-color="#FCAC23" stop-opacity="0"/>
</linearGradient>
<linearGradient id="paint5_linear" x1="-0.996918" y1="74.0389" x2="143.561" y2="139.794" gradientUnits="userSpaceOnUse">
<stop offset="0.268065" stop-color="#FF8E28"/>
<stop offset="1" stop-color="#FCAC23" stop-opacity="0"/>
</linearGradient>
<linearGradient id="paint6_linear" x1="-0.996918" y1="74.0389" x2="143.561" y2="139.794" gradientUnits="userSpaceOnUse">
<stop offset="0.268065" stop-color="#FF8E28"/>
<stop offset="1" stop-color="#FCAC23" stop-opacity="0"/>
</linearGradient>
<linearGradient id="paint7_linear" x1="-0.996918" y1="74.0389" x2="143.561" y2="139.794" gradientUnits="userSpaceOnUse">
<stop offset="0.268065" stop-color="#FF8E28"/>
<stop offset="1" stop-color="#FCAC23" stop-opacity="0"/>
</linearGradient>
<linearGradient id="paint8_linear" x1="-0.996918" y1="74.0389" x2="143.561" y2="139.794" gradientUnits="userSpaceOnUse">
<stop offset="0.268065" stop-color="#FF8E28"/>
<stop offset="1" stop-color="#FCAC23" stop-opacity="0"/>
</linearGradient>
<linearGradient id="paint9_linear" x1="-0.996918" y1="74.0389" x2="143.561" y2="139.794" gradientUnits="userSpaceOnUse">
<stop offset="0.268065" stop-color="#FF8E28"/>
<stop offset="1" stop-color="#FCAC23" stop-opacity="0"/>
</linearGradient>
<linearGradient id="paint10_linear" x1="-0.996918" y1="74.0389" x2="143.561" y2="139.794" gradientUnits="userSpaceOnUse">
<stop offset="0.268065" stop-color="#FF8E28"/>
<stop offset="1" stop-color="#FCAC23" stop-opacity="0"/>
</linearGradient>
<linearGradient id="paint11_linear" x1="-0.996918" y1="74.0389" x2="143.561" y2="139.794" gradientUnits="userSpaceOnUse">
<stop offset="0.268065" stop-color="#FF8E28"/>
<stop offset="1" stop-color="#FCAC23" stop-opacity="0"/>
</linearGradient>
<linearGradient id="paint12_linear" x1="-0.996918" y1="74.0389" x2="143.561" y2="139.794" gradientUnits="userSpaceOnUse">
<stop offset="0.268065" stop-color="#FF8E28"/>
<stop offset="1" stop-color="#FCAC23" stop-opacity="0"/>
</linearGradient>
<linearGradient id="paint13_linear" x1="-0.996918" y1="74.0389" x2="143.561" y2="139.794" gradientUnits="userSpaceOnUse">
<stop offset="0.268065" stop-color="#FF8E28"/>
<stop offset="1" stop-color="#FCAC23" stop-opacity="0"/>
</linearGradient>
<linearGradient id="paint14_linear" x1="-0.996918" y1="74.0389" x2="143.561" y2="139.794" gradientUnits="userSpaceOnUse">
<stop offset="0.268065" stop-color="#FF8E28"/>
<stop offset="1" stop-color="#FCAC23" stop-opacity="0"/>
</linearGradient>
<linearGradient id="paint15_linear" x1="-0.996918" y1="74.0389" x2="143.561" y2="139.794" gradientUnits="userSpaceOnUse">
<stop offset="0.268065" stop-color="#FF8E28"/>
<stop offset="1" stop-color="#FCAC23" stop-opacity="0"/>
</linearGradient>
</defs>
</svg>
