<svg width="17" height="17" viewBox="0 0 17 17" fill="none" xmlns="http://www.w3.org/2000/svg">
<path d="M15.9 3.702V1.14C15.9 0.786 15.614 0.5 15.26 0.5H1.74001C1.38601 0.5 1.10001 0.786 1.10001 1.14V3.702C0.766012 3.722 0.500012 4 0.500012 4.34V6.974C0.498732 7.45809 0.596751 7.9373 0.788012 8.382C0.874012 8.586 0.980012 8.778 1.10001 8.96V15.86C1.10001 16.212 1.38601 16.5 1.74001 16.5H15.26C15.614 16.5 15.9 16.214 15.9 15.86V8.96C16.0219 8.77754 16.1264 8.58402 16.212 8.382C16.402 7.936 16.5 7.462 16.5 6.974V4.34C16.5 4 16.234 3.722 15.9 3.702ZM2.54001 1.94H14.46V3.7H2.54001V1.94ZM9.78001 15.062H7.22001V12.98H9.78001V15.062ZM11.06 15.062V12.34C11.06 11.986 10.774 11.7 10.42 11.7H6.58001C6.22601 11.7 5.94001 11.986 5.94001 12.34V15.062H2.54001V10.218C2.59801 10.246 2.65801 10.274 2.72001 10.298C3.16601 10.486 3.64001 10.58 4.12801 10.58C4.61601 10.58 5.08801 10.486 5.53601 10.298C5.81201 10.182 6.07201 10.034 6.31001 9.856C6.31401 9.854 6.31801 9.854 6.32201 9.856C6.56075 10.0348 6.82073 10.1832 7.09601 10.298C7.54201 10.486 8.01601 10.58 8.50401 10.58C8.99201 10.58 9.46401 10.486 9.91201 10.298C10.188 10.182 10.448 10.034 10.686 9.856C10.69 9.854 10.694 9.854 10.698 9.856C10.9368 10.0348 11.1967 10.1832 11.472 10.298C11.918 10.486 12.392 10.58 12.88 10.58C13.368 10.58 13.84 10.486 14.288 10.298C14.348 10.272 14.408 10.246 14.468 10.218V15.062H11.06ZM15.06 6.974C15.06 8.17 14.08 9.14 12.874 9.14C12.058 9.14 11.346 8.698 10.97 8.042C10.912 7.942 10.808 7.88 10.692 7.88H10.68C10.566 7.88 10.46 7.942 10.402 8.042C10.2101 8.37663 9.93307 8.6545 9.599 8.84735C9.26493 9.04021 8.88575 9.14118 8.50001 9.14C7.68601 9.14 6.97601 8.7 6.60001 8.046C6.54001 7.944 6.43201 7.88 6.31401 7.88C6.19601 7.88 6.08601 7.944 6.02801 8.046C5.83501 8.37935 5.5576 8.65598 5.2237 8.84803C4.8898 9.04008 4.5112 9.14079 4.12601 9.14C2.92001 9.14 1.94001 8.17 1.94001 6.974V5.15C1.94001 5.144 1.94401 5.14 1.95001 5.14H15.05C15.056 5.14 15.06 5.144 15.06 5.15V6.974Z" fill="white"/>
</svg>
