<svg width="120" height="120" viewBox="0 0 120 120" fill="none" xmlns="http://www.w3.org/2000/svg">
<g clip-path="url(#clip0)">
<path d="M43.3908 24.1141C30.0424 10.7657 13.7128 6.85447 6.05388 14.5134C-1.60502 22.1723 2.30622 38.5014 15.6551 51.85C22.2084 58.4034 32.2434 59.3442 39.8027 54.6829L89.8197 111.034C89.9805 111.224 90.1493 111.409 90.3283 111.588C93.8632 115.123 99.5946 115.123 103.129 111.588C106.664 108.053 106.664 102.322 103.129 98.7871C102.95 98.6081 102.765 98.4395 102.576 98.2785L46.2229 48.2617C50.8847 40.7027 49.9439 30.6677 43.3908 24.1141Z" fill="#FFA101"/>
<path d="M47.2624 46.334C47.287 46.2818 47.3132 46.23 47.3374 46.1775C47.3709 46.1067 47.4014 46.034 47.4344 45.9628C50.6428 38.7602 49.2991 30.0225 43.3905 24.1139C43.1498 23.8734 42.9079 23.6367 42.6653 23.4019C44.3339 26.3578 45.2896 29.7689 45.2896 33.4052C45.2896 44.6669 36.1603 53.7963 24.8985 53.7963C21.3454 53.7963 18.0072 52.8834 15.0984 51.2852C15.2819 51.4737 15.4671 51.6621 15.6546 51.8496C21.9553 58.1503 31.4735 59.2598 38.9163 55.1937C42.5203 53.1614 45.445 50.0683 47.2624 46.334Z" fill="#93370C"/>
<path d="M76.4907 27.0737L70.9161 32.6483C66.736 36.8284 65.8541 43.0544 68.2642 48.1009L11.7317 98.279C11.5421 98.4397 11.3567 98.6085 11.1779 98.7876C7.64284 102.322 7.64284 108.054 11.1779 111.589C14.713 115.123 20.4442 115.123 23.979 111.589C24.1581 111.41 24.3266 111.224 24.4876 111.035L74.665 54.5017C79.7115 56.912 85.9379 56.0296 90.118 51.8497L95.3575 46.6103L76.4907 27.0737Z" fill="#FFDFA9"/>
<path d="M81.2443 35.481C81.6652 35.9017 82.2165 36.112 82.7682 36.112C83.3195 36.112 83.8712 35.9017 84.2921 35.481L106.635 13.139C107.476 12.2971 107.476 10.9331 106.635 10.0914C105.793 9.25048 104.429 9.24978 103.587 10.0914L81.2445 32.4334C80.4029 33.2751 80.4029 34.6391 81.2443 35.481Z" fill="black"/>
<path d="M87.3208 41.4614C87.7418 41.8821 88.2935 42.0923 88.8447 42.0923C89.396 42.0923 89.9477 41.8821 90.3686 41.4614L112.711 19.1189C113.553 18.277 113.553 16.9129 112.711 16.0713C111.869 15.2301 110.505 15.2301 109.663 16.0713L87.3208 38.4138C86.4796 39.2557 86.4796 40.6197 87.3208 41.4614Z" fill="black"/>
<path d="M91.6334 53.8002L119.369 26.0648C120.21 25.2229 120.21 23.8588 119.369 23.0172C118.527 22.1763 117.163 22.1756 116.321 23.0172L88.5863 50.7527C85.1693 54.1694 79.9446 55.0659 75.5855 52.9842C74.7183 52.5702 73.6828 52.7795 73.0451 53.4981L63.6211 64.116C63.6174 64.12 63.6131 64.1235 63.6094 64.1277C63.6056 64.132 63.6028 64.1364 63.5991 64.1406L22.8673 110.031C22.857 110.042 22.8467 110.054 22.8366 110.066C22.7025 110.224 22.5755 110.362 22.4471 110.491C19.7576 113.18 15.3818 113.18 12.6935 110.491C11.3909 109.189 10.6735 107.456 10.6735 105.614C10.6735 103.772 11.3909 102.04 12.6959 100.735C12.821 100.609 12.9593 100.483 13.1185 100.347C13.1304 100.337 13.1424 100.327 13.1541 100.317L38.6185 77.7149C39.5086 76.9249 39.5895 75.5629 38.7999 74.673C38.0098 73.7826 36.6476 73.7013 35.7579 74.4916L10.3102 97.0785C10.0669 97.286 9.84916 97.4868 9.64619 97.69C7.52955 99.8067 6.36377 102.621 6.36377 105.614C6.36377 108.607 7.52932 111.422 9.64596 113.538C11.831 115.723 14.7007 116.815 17.5706 116.815C20.4396 116.815 23.3096 115.723 25.4932 113.54C25.7002 113.333 25.9006 113.115 26.1063 112.874L57.1451 77.9041L88.1843 112.875C88.3896 113.116 88.5903 113.334 88.7958 113.539C90.9804 115.724 93.8501 116.816 96.7198 116.816C99.5897 116.816 102.46 115.723 104.644 113.539C109.013 109.169 109.013 102.06 104.646 97.6919C104.439 97.4849 104.221 97.2846 103.98 97.079L68.2638 65.3774L75.2517 57.5043C80.9135 59.5103 87.3199 58.113 91.6334 53.8002ZM101.136 100.317C101.148 100.327 101.16 100.338 101.172 100.348C101.329 100.482 101.468 100.609 101.597 100.737C104.286 103.426 104.286 107.802 101.597 110.491C98.9074 113.18 94.5319 113.18 91.8417 110.489C91.7145 110.362 91.5872 110.223 91.4529 110.066C91.4428 110.054 91.4325 110.042 91.4222 110.03L60.026 74.6577L65.4024 68.6003L101.136 100.317Z" fill="black"/>
<path d="M39.3336 57.837L47.147 66.6399C47.2 66.6994 47.255 66.7552 47.3127 66.8075C47.3572 66.8698 47.4048 66.9308 47.4566 66.9891C47.8825 67.4689 48.4743 67.7133 49.0691 67.7133C49.5779 67.7133 50.0884 67.5343 50.4988 67.1701L69.6861 50.1394C70.4045 49.5017 70.6138 48.4658 70.2001 47.599C68.1179 43.2394 69.0146 38.0152 72.4316 34.5987L100.167 6.86303C101.009 6.02115 101.009 4.65709 100.167 3.81545C99.3252 2.97428 97.9611 2.97428 97.1195 3.81545L69.3845 31.5511C65.0706 35.8646 63.6737 42.2705 65.6797 47.9333L57.145 55.5087L48.9423 48.2281C53.1843 39.8815 51.6357 29.7474 44.9059 23.0171C38.222 16.3332 30.4801 11.6295 23.1064 9.77303C15.4089 7.83545 8.80934 9.12896 4.52168 13.4164C0.234022 17.7038 -1.05949 24.3043 0.878319 32.0014C2.7348 39.3746 7.43848 47.1165 14.1229 53.8001C20.8527 60.5304 30.9864 62.0792 39.3336 57.837ZM7.56902 16.464C10.7415 13.2912 15.8861 12.3997 22.0539 13.9526C28.6836 15.6219 35.717 19.9233 41.8581 26.0647C47.604 31.8104 48.6409 40.6486 44.3804 47.5576C43.8311 48.4484 44.0014 49.6053 44.784 50.3002L53.8984 58.3899L49.2493 62.5165L41.4053 53.6792C40.7106 52.8966 39.5532 52.7255 38.6626 53.2756C31.7537 57.5358 22.9154 56.4992 17.1695 50.753C11.0279 44.6117 6.72644 37.5788 5.05699 30.949C3.50449 24.781 4.39629 19.6365 7.56902 16.464Z" fill="black"/>
</g>
<defs>
<clipPath id="clip0">
<rect width="120" height="120" fill="white"/>
</clipPath>
</defs>
</svg>
