<svg width="120" height="120" viewBox="0 0 120 120" fill="none" xmlns="http://www.w3.org/2000/svg">
<path d="M88.125 20.625V110.625C88.122 111.619 87.726 112.571 87.0234 113.273C86.3208 113.976 85.3686 114.372 84.375 114.375H9.375C8.38135 114.372 7.42925 113.976 6.72663 113.273C6.02401 112.571 5.62797 111.619 5.625 110.625V9.375C5.62797 8.38135 6.02401 7.42925 6.72663 6.72663C7.42925 6.02401 8.38135 5.62797 9.375 5.625H73.125V16.875C73.128 17.8686 73.524 18.8208 74.2266 19.5234C74.9292 20.226 75.8814 20.622 76.875 20.625H88.125Z" fill="#FFDFA9"/>
<path d="M88.125 20.625V110.625C88.122 111.619 87.726 112.571 87.0234 113.273C86.3208 113.976 85.3686 114.372 84.375 114.375H75C75.9936 114.372 76.9458 113.976 77.6484 113.273C78.351 112.571 78.747 111.619 78.75 110.625V20.625H88.125Z" fill="#FFDE55"/>
<path d="M88.125 86.25C102.622 86.25 114.375 74.4975 114.375 60C114.375 45.5025 102.622 33.75 88.125 33.75C73.6275 33.75 61.875 45.5025 61.875 60C61.875 74.4975 73.6275 86.25 88.125 86.25Z" fill="#BDFDFF"/>
<path d="M114.375 60C114.375 66.9619 111.609 73.6387 106.687 78.5616C101.764 83.4844 95.0869 86.25 88.125 86.25C86.8705 86.2485 85.6175 86.1608 84.375 85.9875C90.6322 85.0959 96.3576 81.9766 100.5 77.2026C104.642 72.4286 106.922 66.3204 106.922 60C106.922 53.6796 104.642 47.5714 100.5 42.7974C96.3576 38.0234 90.6322 34.9041 84.375 34.0125C85.6175 33.8392 86.8705 33.7515 88.125 33.75C95.0869 33.75 101.764 36.5156 106.687 41.4384C111.609 46.3613 114.375 53.0381 114.375 60Z" fill="#00E7F0"/>
<path d="M93.75 46.875V54.375C93.75 55.8668 93.1574 57.2976 92.1025 58.3525C91.0476 59.4074 89.6168 60 88.125 60C86.6332 60 85.2024 59.4074 84.1475 58.3525C83.0926 57.2976 82.5 55.8668 82.5 54.375V46.875C82.5 45.3832 83.0926 43.9524 84.1475 42.8975C85.2024 41.8426 86.6332 41.25 88.125 41.25C89.6168 41.25 91.0476 41.8426 92.1025 42.8975C93.1574 43.9524 93.75 45.3832 93.75 46.875V46.875Z" fill="#FFC477"/>
<path d="M93.75 46.8751V54.3751C93.75 55.8669 93.1574 57.2977 92.1025 58.3526C91.0476 59.4075 89.6168 60.0001 88.125 60.0001C87.4845 60.0041 86.8489 59.8897 86.25 59.6626C87.3491 59.2834 88.3018 58.5696 88.9743 57.6212C89.6469 56.6729 90.0056 55.5377 90 54.3751V46.8751C90.0001 46.1366 89.8543 45.4053 89.5712 44.7231C89.2881 44.041 88.8731 43.4215 88.35 42.9001C87.763 42.3035 87.0435 41.8539 86.25 41.5876C86.8489 41.3605 87.4845 41.2461 88.125 41.2501C89.6168 41.2501 91.0476 41.8427 92.1025 42.8976C93.1574 43.9525 93.75 45.3833 93.75 46.8751V46.8751Z" fill="#FFA733"/>
<path d="M93.75 46.8751V50.6251H90.3937C90.2622 50.6282 90.1306 50.6219 90 50.6063V46.8751C90.0001 46.1366 89.8543 45.4053 89.5712 44.7231C89.2881 44.041 88.8731 43.4215 88.35 42.9001C87.763 42.3035 87.0435 41.8539 86.25 41.5876C86.8489 41.3605 87.4845 41.2461 88.125 41.2501C89.6168 41.2501 91.0476 41.8427 92.1025 42.8976C93.1574 43.9525 93.75 45.3833 93.75 46.8751V46.8751Z" fill="#6A563D"/>
<path d="M99.375 67.5V75H76.875V67.5C76.875 65.5109 77.6652 63.6032 79.0717 62.1967C80.4782 60.7902 82.3859 60 84.375 60H91.875C93.8641 60 95.7718 60.7902 97.1783 62.1967C98.5848 63.6032 99.375 65.5109 99.375 67.5Z" fill="#91DC5A"/>
<path d="M99.375 67.5V75H91.875V67.5C91.875 65.5109 91.0848 63.6032 89.6783 62.1967C88.2718 60.7902 86.3641 60 84.375 60H91.875C93.8641 60 95.7718 60.7902 97.1783 62.1967C98.5848 63.6032 99.375 65.5109 99.375 67.5Z" fill="#5EAC24"/>
<path d="M93.75 46.875V50.625H90.3937C88.9125 50.6272 87.4639 50.19 86.2313 49.3688L82.5 46.875C82.5 45.3832 83.0926 43.9524 84.1475 42.8975C85.2024 41.8426 86.6332 41.25 88.125 41.25C89.6168 41.25 91.0476 41.8426 92.1025 42.8975C93.1574 43.9524 93.75 45.3832 93.75 46.875V46.875Z" fill="#806749"/>
<path d="M93.75 46.8751V50.6251H90.3937C90.2622 50.6282 90.1306 50.6219 90 50.6063V46.8751C90.0001 46.1366 89.8543 45.4053 89.5712 44.7231C89.2881 44.041 88.8731 43.4215 88.35 42.9001C87.763 42.3035 87.0435 41.8539 86.25 41.5876C86.8489 41.3605 87.4845 41.2461 88.125 41.2501C89.6168 41.2501 91.0476 41.8427 92.1025 42.8976C93.1574 43.9525 93.75 45.3833 93.75 46.8751V46.8751Z" fill="#6A563D"/>
<path d="M88.125 20.625H76.875C75.8814 20.622 74.9292 20.226 74.2266 19.5234C73.524 18.8208 73.128 17.8686 73.125 16.875V5.625L88.125 20.625Z" fill="#FF7956"/>
<path d="M48.6 57.0561C49.4596 57.554 50.0865 58.3726 50.3431 59.3323C50.5997 60.292 50.4651 61.3143 49.9687 62.1748L48.0937 65.4186L41.6062 61.6686L43.4812 58.4248C43.81 57.8553 44.2828 57.3823 44.8521 57.0532C45.4215 56.7241 46.0673 56.5505 46.725 56.5498C47.3832 56.5537 48.0292 56.7281 48.6 57.0561V57.0561Z" fill="#898890"/>
<path d="M22.8545 94.146L41.6045 61.671L48.093 65.4172L29.343 97.8922L22.8545 94.146Z" fill="#FFA101"/>
<path d="M22.8545 94.146L41.6045 61.671L48.093 65.4172L29.343 97.8922L22.8545 94.146Z" fill="#FFA101"/>
<path d="M30 46.875C39.3198 46.875 46.875 39.3198 46.875 30C46.875 20.6802 39.3198 13.125 30 13.125C20.6802 13.125 13.125 20.6802 13.125 30C13.125 39.3198 20.6802 46.875 30 46.875Z" fill="#FFD422"/>
<path d="M46.875 30C46.875 34.4755 45.0971 38.7677 41.9324 41.9324C38.7677 45.0971 34.4755 46.875 30 46.875C28.7388 46.8727 27.4815 46.7344 26.25 46.4625C29.9792 45.6109 33.3087 43.5185 35.6935 40.5277C38.0783 37.537 39.3771 33.8252 39.3771 30C39.3771 26.1748 38.0783 22.463 35.6935 19.4723C33.3087 16.4815 29.9792 14.3891 26.25 13.5375C27.4815 13.2656 28.7388 13.1273 30 13.125C34.4755 13.125 38.7677 14.9029 41.9324 18.0676C45.0971 21.2322 46.875 25.5245 46.875 30V30Z" fill="#EBBF00"/>
<path d="M29.3436 97.8936L20.4749 105.769L22.8561 94.1436L29.3436 97.8936Z" fill="#898890"/>
<path d="M31.875 41.25V39.03C33.125 38.5897 34.1789 37.7212 34.8499 36.5784C35.521 35.4355 35.7659 34.0921 35.5414 32.7859C35.3168 31.4798 34.6372 30.2953 33.623 29.4422C32.6087 28.5891 31.3253 28.1225 30 28.125C29.6292 28.125 29.2666 28.015 28.9583 27.809C28.65 27.603 28.4096 27.3101 28.2677 26.9675C28.1258 26.6249 28.0887 26.2479 28.161 25.8842C28.2334 25.5205 28.412 25.1864 28.6742 24.9242C28.9364 24.662 29.2705 24.4834 29.6342 24.411C29.9979 24.3387 30.3749 24.3758 30.7175 24.5177C31.0601 24.6596 31.353 24.9 31.559 25.2083C31.765 25.5166 31.875 25.8792 31.875 26.25H35.625C35.6202 25.0908 35.2573 23.9613 34.5861 23.0162C33.9148 22.0711 32.968 21.3564 31.875 20.97V18.75H28.125V20.97C26.875 21.4103 25.8211 22.2788 25.1501 23.4216C24.479 24.5645 24.2341 25.9079 24.4586 27.2141C24.6832 28.5202 25.3628 29.7047 26.377 30.5578C27.3913 31.4109 28.6747 31.8775 30 31.875C30.3708 31.875 30.7334 31.985 31.0417 32.191C31.35 32.397 31.5904 32.6899 31.7323 33.0325C31.8742 33.3751 31.9113 33.7521 31.839 34.1158C31.7666 34.4795 31.5881 34.8136 31.3258 35.0758C31.0636 35.3381 30.7295 35.5166 30.3658 35.589C30.0021 35.6613 29.6251 35.6242 29.2825 35.4823C28.9399 35.3404 28.647 35.1 28.441 34.7917C28.235 34.4834 28.125 34.1208 28.125 33.75H24.375C24.3798 34.9092 24.7427 36.0387 25.4139 36.9838C26.0852 37.9289 27.032 38.6436 28.125 39.03V41.25H31.875Z" fill="black"/>
<path d="M28.125 105H58.125V108.75H28.125V105Z" fill="black"/>
<path d="M94.3744 58.5C95.1892 57.2785 95.6243 55.8433 95.625 54.375V46.875C95.625 44.8859 94.8348 42.9782 93.4283 41.5717C92.0218 40.1652 90.1141 39.375 88.125 39.375C86.1359 39.375 84.2282 40.1652 82.8217 41.5717C81.4152 42.9782 80.625 44.8859 80.625 46.875V54.375C80.6257 55.8433 81.0608 57.2785 81.8756 58.5C79.904 59.0434 78.1644 60.2174 76.9229 61.8426C75.6813 63.4678 75.0059 65.4548 75 67.5V75C75 75.4973 75.1975 75.9742 75.5492 76.3258C75.9008 76.6775 76.3777 76.875 76.875 76.875H99.375C99.8723 76.875 100.349 76.6775 100.701 76.3258C101.052 75.9742 101.25 75.4973 101.25 75V67.5C101.244 65.4548 100.569 63.4678 99.3271 61.8426C98.0856 60.2174 96.346 59.0434 94.3744 58.5V58.5ZM84.375 54.375V50.3775L85.1944 50.925C86.7342 51.9528 88.5443 52.5009 90.3956 52.5H91.875V54.375C91.875 55.3696 91.4799 56.3234 90.7767 57.0266C90.0734 57.7299 89.1196 58.125 88.125 58.125C87.1304 58.125 86.1766 57.7299 85.4733 57.0266C84.7701 56.3234 84.375 55.3696 84.375 54.375ZM88.125 43.125C89.1196 43.125 90.0734 43.5201 90.7767 44.2234C91.4799 44.9266 91.875 45.8804 91.875 46.875V48.75H90.3956C89.2857 48.7533 88.1999 48.427 87.2756 47.8125L84.5025 45.9637C84.705 45.1553 85.1711 44.4374 85.8271 43.9233C86.483 43.4092 87.2916 43.1284 88.125 43.125V43.125ZM97.5 73.125H78.75V67.5C78.75 66.0082 79.3426 64.5774 80.3975 63.5225C81.4524 62.4676 82.8832 61.875 84.375 61.875H91.875C93.3668 61.875 94.7976 62.4676 95.8525 63.5225C96.9074 64.5774 97.5 66.0082 97.5 67.5V73.125Z" fill="black"/>
<path d="M90 31.9687V20.625C89.9963 20.1279 89.8016 19.6513 89.4562 19.2937L74.4562 4.29375C74.0987 3.94838 73.6221 3.7537 73.125 3.75H9.375C7.88453 3.75445 6.45637 4.34851 5.40244 5.40244C4.34851 6.45637 3.75445 7.88453 3.75 9.375V110.625C3.75445 112.115 4.34851 113.544 5.40244 114.598C6.45637 115.651 7.88453 116.246 9.375 116.25H84.375C85.8655 116.246 87.2936 115.651 88.3476 114.598C89.4015 113.544 89.9955 112.115 90 110.625V88.0313C97.1174 87.5653 103.791 84.4094 108.667 79.2038C113.543 73.9981 116.256 67.1326 116.256 60C116.256 52.8674 113.543 46.0019 108.667 40.7962C103.791 35.5906 97.1174 32.4347 90 31.9687V31.9687ZM75 10.1437L83.6063 18.75H76.875C76.3777 18.75 75.9008 18.5525 75.5492 18.2008C75.1975 17.8492 75 17.3723 75 16.875V10.1437ZM86.25 110.625C86.25 111.122 86.0525 111.599 85.7008 111.951C85.3492 112.302 84.8723 112.5 84.375 112.5H9.375C8.87772 112.5 8.40081 112.302 8.04918 111.951C7.69754 111.599 7.5 111.122 7.5 110.625V9.375C7.5 8.87772 7.69754 8.40081 8.04918 8.04918C8.40081 7.69754 8.87772 7.5 9.375 7.5H71.25V16.875C71.2545 18.3655 71.8485 19.7936 72.9024 20.8476C73.9564 21.9015 75.3845 22.4955 76.875 22.5H86.25V31.9687C79.1326 32.4347 72.459 35.5906 67.583 40.7962C62.707 46.0019 59.9938 52.8674 59.9938 60C59.9938 67.1326 62.707 73.9981 67.583 79.2038C72.459 84.4094 79.1326 87.5653 86.25 88.0313V110.625ZM88.125 84.375C83.3041 84.375 78.5914 82.9454 74.583 80.2671C70.5745 77.5887 67.4503 73.7819 65.6054 69.3279C63.7606 64.874 63.2778 59.973 64.2184 55.2447C65.1589 50.5164 67.4804 46.1732 70.8893 42.7643C74.2982 39.3554 78.6414 37.0339 83.3697 36.0934C88.098 35.1528 92.999 35.6356 97.4529 37.4804C101.907 39.3253 105.714 42.4495 108.392 46.458C111.07 50.4664 112.5 55.1791 112.5 60C112.494 66.4628 109.924 72.6592 105.354 77.2291C100.784 81.7991 94.5878 84.369 88.125 84.375Z" fill="black"/>
<path d="M30 11.25C26.2916 11.25 22.6665 12.3497 19.5831 14.4099C16.4996 16.4702 14.0964 19.3986 12.6773 22.8247C11.2581 26.2508 10.8868 30.0208 11.6103 33.6579C12.3338 37.2951 14.1195 40.636 16.7418 43.2583C19.364 45.8805 22.7049 47.6663 26.3421 48.3897C29.9792 49.1132 33.7492 48.7419 37.1753 47.3227C40.6014 45.9036 43.5298 43.5004 45.5901 40.4169C47.6503 37.3335 48.75 33.7084 48.75 30C48.7421 25.0296 46.7641 20.2651 43.2495 16.7505C39.7349 13.2359 34.9704 11.2579 30 11.25ZM30 45C27.0333 45 24.1332 44.1203 21.6665 42.472C19.1997 40.8238 17.2771 38.4811 16.1418 35.7403C15.0065 32.9994 14.7095 29.9834 15.2882 27.0736C15.867 24.1639 17.2956 21.4912 19.3934 19.3934C21.4912 17.2956 24.1639 15.867 27.0737 15.2882C29.9834 14.7094 32.9994 15.0065 35.7403 16.1418C38.4812 17.2771 40.8238 19.1997 42.4721 21.6664C44.1203 24.1332 45 27.0333 45 30C44.9946 33.9766 43.4124 37.7887 40.6006 40.6006C37.7887 43.4124 33.9766 44.9945 30 45V45Z" fill="black"/>
<path d="M55.5187 67.5563L50.6625 64.7438L51.6 63.1125C52.3459 61.8196 52.5476 60.2833 52.1608 58.8416C51.774 57.3999 50.8304 56.1709 49.5375 55.425C48.2445 54.6791 46.7082 54.4773 45.2665 54.8641C43.8249 55.2509 42.5959 56.1946 41.85 57.4875L39.975 60.7313L21.225 93.2063C21.1317 93.3838 21.0623 93.573 21.0187 93.7688L18.6375 105.394C18.5594 105.78 18.6043 106.181 18.7657 106.541C18.927 106.901 19.1969 107.201 19.5375 107.4C19.8226 107.563 20.1463 107.648 20.475 107.644C20.93 107.639 21.3686 107.473 21.7125 107.175L30.5812 99.3C30.7365 99.1656 30.8694 99.0074 30.975 98.8313L48.7875 67.9875L52.0312 69.8625L45.4687 81.225L48.7125 83.1L56.2125 70.1063C56.3365 69.8938 56.417 69.6588 56.4492 69.4149C56.4815 69.171 56.4648 68.9232 56.4003 68.6858C56.3357 68.4484 56.2245 68.2263 56.0731 68.0324C55.9218 67.8384 55.7333 67.6766 55.5187 67.5563V67.5563ZM23.4375 100.631L24.1687 97.0688L26.1562 98.2313L23.4375 100.631ZM28.65 95.3438L25.4062 93.4688L42.2812 64.2375L45.525 66.1125L28.65 95.3438ZM48.3375 61.2375L47.4 62.8688L44.1562 60.9938L45.0937 59.3625C45.3446 58.9323 45.7549 58.6183 46.2357 58.4885C46.7165 58.3586 47.2291 58.4234 47.6625 58.6688C47.8757 58.7928 48.0624 58.9578 48.2119 59.1541C48.3613 59.3505 48.4705 59.5744 48.5332 59.813C48.5959 60.0517 48.6109 60.3003 48.5773 60.5448C48.5437 60.7892 48.4622 61.0246 48.3375 61.2375V61.2375Z" fill="black"/>
<path d="M52.5 15H67.5V18.75H52.5V15Z" fill="black"/>
<path d="M52.5 22.5H67.5V26.25H52.5V22.5Z" fill="black"/>
<path d="M52.5 30H67.5V33.75H52.5V30Z" fill="black"/>
</svg>
