<svg width="14" height="23" viewBox="0 0 14 23" fill="none" xmlns="http://www.w3.org/2000/svg">
<path opacity="0.7" d="M5.14582 11.5013L12.9977 2.95192C13.3198 2.62661 13.5005 2.18732 13.5005 1.72952C13.5005 1.27172 13.3198 0.832428 12.9977 0.507118C12.8395 0.346506 12.651 0.218957 12.4431 0.131896C12.2351 0.0448347 12.012 0 11.7865 0C11.5611 0 11.338 0.0448347 11.13 0.131896C10.9221 0.218957 10.7336 0.346506 10.5754 0.507118L1.00115 10.2763C0.679491 10.6024 0.499149 11.042 0.499149 11.5C0.499149 11.958 0.679491 12.3976 1.00115 12.7237L10.5754 22.4929C10.7336 22.6535 10.9221 22.781 11.13 22.8681C11.338 22.9552 11.5611 23 11.7865 23C12.012 23 12.2351 22.9552 12.4431 22.8681C12.651 22.781 12.8395 22.6535 12.9977 22.4929C13.3198 22.1676 13.5005 21.7283 13.5005 21.2705C13.5005 20.8127 13.3198 20.3734 12.9977 20.0481L5.14582 11.5013Z" fill="#4F576A"/>
</svg>
