<svg width="36" height="37" viewBox="0 0 36 37" fill="none" xmlns="http://www.w3.org/2000/svg">
<path d="M31.4999 31.6058L31.8867 31.887C31.6288 32.1214 31.4999 32.4026 31.4999 32.7308C31.4999 33.0355 31.6113 33.2991 31.8339 33.5218C32.0566 33.7444 32.3203 33.8558 32.6249 33.8558H34.4882L35.0859 34.3128C34.1718 35.5081 32.9765 36.1058 31.4999 36.1058H4.49994C3.25775 36.1058 2.1972 35.6663 1.3183 34.7874C0.439392 33.9085 -6.10352e-05 32.848 -6.10352e-05 31.6058V4.60577C-6.10352e-05 3.36359 0.439392 2.30304 1.3183 1.42413C2.1972 0.545227 3.25775 0.105774 4.49994 0.105774H31.4999C32.9765 0.105774 34.1718 0.70343 35.0859 1.89874L34.4882 2.35577H32.6249C32.3203 2.35577 32.0566 2.4671 31.8339 2.68976C31.6113 2.91241 31.4999 3.17609 31.4999 3.48077C31.4999 3.8089 31.6288 4.09015 31.8867 4.32452L31.4999 4.60577L35.9999 7.98077L31.4999 11.3558L35.9999 14.7308L31.4999 18.1058L35.9999 21.4808L31.4999 24.8558L35.9999 28.2308L31.4999 31.6058ZM19.1249 33.8558H21.3749C21.6796 33.8558 21.9433 33.7444 22.166 33.5218C22.3886 33.2991 22.4999 33.0355 22.4999 32.7308C22.4999 32.4261 22.3886 32.1624 22.166 31.9398C21.9433 31.7171 21.6796 31.6058 21.3749 31.6058H19.1249C18.8203 31.6058 18.5566 31.7171 18.3339 31.9398C18.1113 32.1624 17.9999 32.4261 17.9999 32.7308C17.9999 33.0355 18.1113 33.2991 18.3339 33.5218C18.5566 33.7444 18.8203 33.8558 19.1249 33.8558ZM24.7499 27.1058C25.9921 27.1058 27.0527 26.6663 27.9316 25.7874C28.8105 24.9085 29.2499 23.848 29.2499 22.6058C29.2499 21.3636 28.8105 20.303 27.9316 19.4241C27.0527 18.5452 25.9921 18.1058 24.7499 18.1058C23.5078 18.1058 22.4472 18.5452 21.5683 19.4241C20.6894 20.303 20.2499 21.3636 20.2499 22.6058C20.2499 23.848 20.6894 24.9085 21.5683 25.7874C22.4472 26.6663 23.5078 27.1058 24.7499 27.1058ZM12.3749 33.8558H14.6249C14.9296 33.8558 15.1933 33.7444 15.416 33.5218C15.6386 33.2991 15.7499 33.0355 15.7499 32.7308C15.7499 32.4261 15.6386 32.1624 15.416 31.9398C15.1933 31.7171 14.9296 31.6058 14.6249 31.6058H12.3749C12.0703 31.6058 11.8066 31.7171 11.5839 31.9398C11.3613 32.1624 11.2499 32.4261 11.2499 32.7308C11.2499 33.0355 11.3613 33.2991 11.5839 33.5218C11.8066 33.7444 12.0703 33.8558 12.3749 33.8558ZM5.62494 33.8558H7.87494C8.17963 33.8558 8.4433 33.7444 8.66595 33.5218C8.88861 33.2991 8.99994 33.0355 8.99994 32.7308C8.99994 32.4261 8.88861 32.1624 8.66595 31.9398C8.4433 31.7171 8.17963 31.6058 7.87494 31.6058H5.62494C5.32025 31.6058 5.05658 31.7171 4.83392 31.9398C4.61127 32.1624 4.49994 32.4261 4.49994 32.7308C4.49994 33.0355 4.61127 33.2991 4.83392 33.5218C5.05658 33.7444 5.32025 33.8558 5.62494 33.8558ZM2.24994 29.3558C2.24994 29.6605 2.36127 29.9241 2.58392 30.1468C2.80658 30.3694 3.07025 30.4808 3.37494 30.4808C3.67963 30.4808 3.9433 30.3694 4.16595 30.1468C4.38861 29.9241 4.49994 29.6605 4.49994 29.3558V27.1058C4.49994 26.8011 4.38861 26.5374 4.16595 26.3148C3.9433 26.0921 3.67963 25.9808 3.37494 25.9808C3.07025 25.9808 2.80658 26.0921 2.58392 26.3148C2.36127 26.5374 2.24994 26.8011 2.24994 27.1058V29.3558ZM2.24994 22.6058C2.24994 22.9105 2.36127 23.1741 2.58392 23.3968C2.80658 23.6194 3.07025 23.7308 3.37494 23.7308C3.67963 23.7308 3.9433 23.6194 4.16595 23.3968C4.38861 23.1741 4.49994 22.9105 4.49994 22.6058V20.3558C4.49994 20.0511 4.38861 19.7874 4.16595 19.5648C3.9433 19.3421 3.67963 19.2308 3.37494 19.2308C3.07025 19.2308 2.80658 19.3421 2.58392 19.5648C2.36127 19.7874 2.24994 20.0511 2.24994 20.3558V22.6058ZM2.24994 15.8558C2.24994 16.1605 2.36127 16.4241 2.58392 16.6468C2.80658 16.8694 3.07025 16.9808 3.37494 16.9808C3.67963 16.9808 3.9433 16.8694 4.16595 16.6468C4.38861 16.4241 4.49994 16.1605 4.49994 15.8558V13.6058C4.49994 13.3011 4.38861 13.0374 4.16595 12.8148C3.9433 12.5921 3.67963 12.4808 3.37494 12.4808C3.07025 12.4808 2.80658 12.5921 2.58392 12.8148C2.36127 13.0374 2.24994 13.3011 2.24994 13.6058V15.8558ZM3.37494 5.73077C3.07025 5.73077 2.80658 5.8421 2.58392 6.06476C2.36127 6.28741 2.24994 6.55109 2.24994 6.85577V9.10577C2.24994 9.41046 2.36127 9.67413 2.58392 9.89679C2.80658 10.1194 3.07025 10.2308 3.37494 10.2308C3.67963 10.2308 3.9433 10.1194 4.16595 9.89679C4.38861 9.67413 4.49994 9.41046 4.49994 9.10577V6.85577C4.49994 6.55109 4.38861 6.28741 4.16595 6.06476C3.9433 5.8421 3.67963 5.73077 3.37494 5.73077ZM7.87494 2.35577H5.62494C5.32025 2.35577 5.05658 2.4671 4.83392 2.68976C4.61127 2.91241 4.49994 3.17609 4.49994 3.48077C4.49994 3.78546 4.61127 4.04913 4.83392 4.27179C5.05658 4.49445 5.32025 4.60577 5.62494 4.60577H7.87494C8.17963 4.60577 8.4433 4.49445 8.66595 4.27179C8.88861 4.04913 8.99994 3.78546 8.99994 3.48077C8.99994 3.17609 8.88861 2.91241 8.66595 2.68976C8.4433 2.4671 8.17963 2.35577 7.87494 2.35577ZM14.6249 2.35577H12.3749C12.0703 2.35577 11.8066 2.4671 11.5839 2.68976C11.3613 2.91241 11.2499 3.17609 11.2499 3.48077C11.2499 3.78546 11.3613 4.04913 11.5839 4.27179C11.8066 4.49445 12.0703 4.60577 12.3749 4.60577H14.6249C14.9296 4.60577 15.1933 4.49445 15.416 4.27179C15.6386 4.04913 15.7499 3.78546 15.7499 3.48077C15.7499 3.17609 15.6386 2.91241 15.416 2.68976C15.1933 2.4671 14.9296 2.35577 14.6249 2.35577ZM13.4999 9.10577C12.2578 9.10577 11.1972 9.54523 10.3183 10.4241C9.43939 11.303 8.99994 12.3636 8.99994 13.6058C8.99994 14.848 9.43939 15.9085 10.3183 16.7874C11.1972 17.6663 12.2578 18.1058 13.4999 18.1058C14.7421 18.1058 15.8027 17.6663 16.6816 16.7874C17.5605 15.9085 17.9999 14.848 17.9999 13.6058C17.9999 12.3636 17.5605 11.303 16.6816 10.4241C15.8027 9.54523 14.7421 9.10577 13.4999 9.10577ZM21.3749 2.35577H19.1249C18.8203 2.35577 18.5566 2.4671 18.3339 2.68976C18.1113 2.91241 17.9999 3.17609 17.9999 3.48077C17.9999 3.78546 18.1113 4.04913 18.3339 4.27179C18.5566 4.49445 18.8203 4.60577 19.1249 4.60577H21.3749C21.6796 4.60577 21.9433 4.49445 22.166 4.27179C22.3886 4.04913 22.4999 3.78546 22.4999 3.48077C22.4999 3.17609 22.3886 2.91241 22.166 2.68976C21.9433 2.4671 21.6796 2.35577 21.3749 2.35577ZM24.2402 9.26398C23.9941 9.11163 23.7304 9.07062 23.4492 9.14093C23.1679 9.21124 22.9453 9.38702 22.7812 9.66827L13.6406 25.4534C13.4999 25.7112 13.4648 25.9925 13.5351 26.2972C13.6054 26.6019 13.7695 26.8304 14.0273 26.9827C14.2851 27.1351 14.5546 27.1702 14.8359 27.0882C15.1171 27.0062 15.3281 26.8362 15.4687 26.5784L24.6445 10.7581C24.7851 10.5003 24.8144 10.2249 24.7324 9.93195C24.6503 9.63898 24.4863 9.41632 24.2402 9.26398ZM28.1249 2.35577H25.8749C25.5703 2.35577 25.3066 2.4671 25.0839 2.68976C24.8613 2.91241 24.7499 3.17609 24.7499 3.48077C24.7499 3.78546 24.8613 4.04913 25.0839 4.27179C25.3066 4.49445 25.5703 4.60577 25.8749 4.60577H28.1249C28.4296 4.60577 28.6933 4.49445 28.916 4.27179C29.1386 4.04913 29.2499 3.78546 29.2499 3.48077C29.2499 3.17609 29.1386 2.91241 28.916 2.68976C28.6933 2.4671 28.4296 2.35577 28.1249 2.35577ZM28.1249 31.6058H25.8749C25.5703 31.6058 25.3066 31.7171 25.0839 31.9398C24.8613 32.1624 24.7499 32.4261 24.7499 32.7308C24.7499 33.0355 24.8613 33.2991 25.0839 33.5218C25.3066 33.7444 25.5703 33.8558 25.8749 33.8558H28.1249C28.4296 33.8558 28.6933 33.7444 28.916 33.5218C29.1386 33.2991 29.2499 33.0355 29.2499 32.7308C29.2499 32.4261 29.1386 32.1624 28.916 31.9398C28.6933 31.7171 28.4296 31.6058 28.1249 31.6058ZM13.5175 15.8558C12.8964 15.8558 12.3632 15.6331 11.9179 15.1878C11.4726 14.7425 11.2499 14.2093 11.2499 13.5882C11.2499 12.9671 11.4726 12.4398 11.9179 12.0062C12.3632 11.5726 12.8964 11.3558 13.5175 11.3558C14.1386 11.3558 14.666 11.5726 15.0995 12.0062C15.5331 12.4398 15.7499 12.9671 15.7499 13.5882C15.7499 14.2093 15.5331 14.7425 15.0995 15.1878C14.666 15.6331 14.1386 15.8558 13.5175 15.8558ZM24.7675 20.3558C25.3886 20.3558 25.916 20.5726 26.3495 21.0062C26.7831 21.4398 26.9999 21.9671 26.9999 22.5882C26.9999 23.2093 26.7831 23.7425 26.3495 24.1878C25.916 24.6331 25.3886 24.8558 24.7675 24.8558C24.1464 24.8558 23.6132 24.6331 23.1679 24.1878C22.7226 23.7425 22.4999 23.2093 22.4999 22.5882C22.4999 21.9671 22.7226 21.4398 23.1679 21.0062C23.6132 20.5726 24.1464 20.3558 24.7675 20.3558Z" fill="#FFA101"/>
</svg>
