<svg width="26" height="30" viewBox="0 0 26 30" fill="none" xmlns="http://www.w3.org/2000/svg">
<path d="M10.4887 5.11171C9.47966 5.11171 8.49327 5.41203 7.65428 5.97469C6.81529 6.53735 6.16137 7.33709 5.77523 8.27277C5.38908 9.20844 5.28805 10.238 5.48491 11.2313C5.68176 12.2246 6.16766 13.1371 6.88117 13.8532C7.59467 14.5693 8.50373 15.057 9.49338 15.2546C10.483 15.4522 11.5088 15.3508 12.4411 14.9632C13.3733 14.5756 14.1701 13.9193 14.7307 13.0772C15.2913 12.2351 15.5905 11.2451 15.5905 10.2323C15.5905 8.87427 15.053 7.57182 14.0962 6.61151C13.1395 5.6512 11.8418 5.11171 10.4887 5.11171ZM10.4887 13.5657C9.83185 13.5657 9.18975 13.3702 8.64361 13.0039C8.09746 12.6376 7.67178 12.117 7.42042 11.508C7.16905 10.8989 7.10329 10.2287 7.23143 9.58205C7.35958 8.93545 7.67588 8.3415 8.14034 7.87533C8.6048 7.40915 9.19656 7.09168 9.84079 6.96307C10.485 6.83445 11.1528 6.90046 11.7596 7.15275C12.3665 7.40504 12.8852 7.83229 13.2501 8.38045C13.615 8.92861 13.8098 9.57308 13.8098 10.2323C13.8074 11.1149 13.4565 11.9604 12.8339 12.5836C12.2113 13.2068 11.368 13.5568 10.4887 13.5567V13.5657Z" fill="#FFA101"/>
<path d="M20.9684 11.1618C20.3642 11.1449 19.7651 11.0457 19.1876 10.8668V11.3762C19.1876 15.0045 17.0329 18.2306 15.457 20.5898L15.1364 21.0634C13.605 23.3691 11.575 25.9517 10.4798 27.2297C9.42916 25.9517 7.3546 23.3691 5.82316 21.0634L5.52043 20.5541C3.94448 18.1948 1.78088 14.9687 1.78088 11.3405C1.78628 9.83781 2.17799 8.36197 2.91812 7.05574C3.65825 5.74952 4.72175 4.65714 6.00571 3.88428C7.28968 3.11142 8.75064 2.68424 10.2473 2.64409C11.7439 2.60393 13.2255 2.95215 14.5488 3.65505C14.6196 3.04058 14.7755 2.43903 15.0118 1.86774C13.4129 1.09266 11.6437 0.738791 9.87094 0.839452C8.09816 0.940113 6.38006 1.49199 4.87846 2.44312C3.37685 3.39425 2.14114 4.71333 1.2877 6.27614C0.434252 7.83896 -0.00884423 9.59408 0.000133765 11.3762C0.000133765 15.5496 2.33291 19.0438 4.04242 21.5907L4.35405 22.0554C6.0549 24.5296 7.87953 26.9157 9.82092 29.2046L10.4976 30L11.1743 29.2046C13.1154 26.9155 14.94 24.5294 16.6412 22.0554L16.9528 21.5818C18.6534 19.0349 20.9862 15.5496 20.9862 11.3762C20.9773 11.3047 20.9684 11.2332 20.9684 11.1618Z" fill="#FFA101"/>
<path d="M21.1731 8.93655C23.6318 8.93655 25.625 6.93604 25.625 4.46828C25.625 2.00051 23.6318 0 21.1731 0C18.7145 0 16.7213 2.00051 16.7213 4.46828C16.7213 6.93604 18.7145 8.93655 21.1731 8.93655Z" fill="#FFA101"/>
</svg>
