<svg width="120" height="120" viewBox="0 0 120 120" fill="none" xmlns="http://www.w3.org/2000/svg">
<path fill-rule="evenodd" clip-rule="evenodd" d="M1.75781 34.6499V80.7409H37.302V75.4675C37.302 72.5671 34.9289 70.194 32.0285 70.194H12.3047V39.9233C12.3047 37.0229 9.93164 34.6499 7.03125 34.6499H1.75781Z" fill="#FFA101"/>
<path fill-rule="evenodd" clip-rule="evenodd" d="M87.9714 70.1938C85.071 70.1938 82.698 72.5669 82.698 75.4672V80.7407H118.242V34.6499H112.969C110.068 34.6499 107.695 37.0229 107.695 39.9233V70.1938H87.9714Z" fill="#FFA101"/>
<path fill-rule="evenodd" clip-rule="evenodd" d="M54.7266 63.1626V101.602C54.7266 104.503 52.3535 106.876 49.4531 106.876H70.5469C67.6465 106.876 65.2734 104.503 65.2734 101.602V63.1626C65.2734 60.2622 67.6465 57.8892 70.5469 57.8892H49.4531C52.3535 57.8892 54.7266 60.2622 54.7266 63.1626Z" fill="#FFCF7B"/>
<path fill-rule="evenodd" clip-rule="evenodd" d="M22.8513 47.3423V57.8892H97.1484V47.3423C72.3827 47.3423 47.617 47.3423 22.8513 47.3423V47.3423Z" fill="#FFCF7B"/>
<path fill-rule="evenodd" clip-rule="evenodd" d="M36.2073 40.311V47.3423H83.551V40.311C67.7699 40.311 51.9887 40.311 36.2073 40.311V40.311Z" fill="#E0DFDE"/>
<path fill-rule="evenodd" clip-rule="evenodd" d="M59.8792 20.1548C48.747 20.1548 39.7229 29.1792 39.7229 40.311H80.0354C80.0354 29.1792 71.0113 20.1548 59.8792 20.1548V20.1548Z" fill="#E0DFDE"/>
<path fill-rule="evenodd" clip-rule="evenodd" d="M1.75781 34.6499H7.03125V80.7409H1.75781V34.6499Z" fill="#93370C"/>
<path fill-rule="evenodd" clip-rule="evenodd" d="M54.7266 63.1626V101.602C54.7266 104.503 52.3535 106.876 49.4531 106.876H54.7266C57.627 106.876 60 104.503 60 101.602V63.1626C60 60.2622 57.627 57.8892 54.7266 57.8892H49.4531C52.3535 57.8892 54.7266 60.2622 54.7266 63.1626Z" fill="#FFAF02"/>
<path fill-rule="evenodd" clip-rule="evenodd" d="M87.9714 70.1938C85.071 70.1938 82.698 72.5669 82.698 75.4672V80.7407H87.9714V75.4672C87.9714 72.5669 90.3445 70.1938 93.2449 70.1938H87.9714ZM118.242 34.6499H112.969C110.068 34.6499 107.695 37.0229 107.695 39.9233V70.1938H112.969V39.9233C112.969 37.0229 115.342 34.6499 118.242 34.6499Z" fill="#93370C"/>
<path fill-rule="evenodd" clip-rule="evenodd" d="M22.8513 47.3423H28.1248V57.8892H22.8513V47.3423Z" fill="#DFBD84"/>
<path fill-rule="evenodd" clip-rule="evenodd" d="M36.2073 40.311H41.4807V47.3423H36.2073V40.311Z" fill="#BFBEC1"/>
<path fill-rule="evenodd" clip-rule="evenodd" d="M59.8792 20.1548C48.747 20.1548 39.7229 29.1792 39.7229 40.311H44.9963C44.9963 30.0728 52.6299 21.6182 62.5159 20.3263C61.6529 20.2138 60.7731 20.1548 59.8792 20.1548V20.1548Z" fill="#BFBEC1"/>
<path d="M69.4814 34.2228C67.6725 31.3761 64.7271 29.4887 61.4004 29.0447L61.8654 25.5601C66.2238 26.1415 70.0812 28.6119 72.4484 32.3373L69.4814 34.2228ZM55.1974 29.9487L53.748 26.7458C55.0638 26.1504 56.4581 25.7515 57.8927 25.5601L58.3577 29.0447C57.2637 29.1908 56.2003 29.495 55.1974 29.9487Z" fill="white"/>
<path d="M80.9402 108.634H84.4558V98.3186H116.484V108.634H120V78.9829H80.9402V108.634ZM116.484 82.4985V94.8032H84.4558V82.4985H116.484Z" fill="black"/>
<path d="M80.9402 75.4675H84.4558C84.4558 73.529 86.0329 71.9519 87.9714 71.9519H112.969V68.4363H109.453V49.1006H105.937V68.4363H87.9714C84.0944 68.436 80.9402 71.5903 80.9402 75.4675Z" fill="black"/>
<path d="M112.969 32.8921C109.092 32.8921 105.938 36.0463 105.938 39.9233V45.5847H109.453V39.9236C109.453 37.9851 111.03 36.4079 112.969 36.4079H116.484V75.4677H120V32.8921H112.969Z" fill="black"/>
<path d="M3.51562 36.4075H7.03125C8.96977 36.4075 10.5469 37.9846 10.5469 39.9231V45.5844H14.0625V39.9233C14.0625 36.0463 10.9083 32.8921 7.03125 32.8921H0V75.4675H3.51562V36.4075Z" fill="black"/>
<path d="M32.0285 68.4358H14.0625V49.1001H10.5469V68.4358H7.03125V71.9514H32.0285C33.967 71.9514 35.5441 73.5285 35.5441 75.467H39.0598C39.0598 71.59 35.9055 68.4358 32.0285 68.4358Z" fill="black"/>
<path d="M0 108.634H3.51562V98.3186H35.5441V108.634H39.0598V78.9829H0V108.634ZM35.5441 82.4985V94.8032H3.51562V82.4985H35.5441Z" fill="black"/>
<path d="M67.0312 101.602V63.1626C67.0312 61.2241 68.6084 59.647 70.5469 59.647H98.9062V45.5845H61.7578V49.1001H95.3906V56.1313H24.6091V49.1001H58.2422V45.5845H21.0935V59.647H49.4531C51.3916 59.647 52.9687 61.2241 52.9687 63.1626V101.602C52.9687 103.541 51.3916 105.118 49.4531 105.118H42.4219V108.633H49.4531H70.5469H77.5781V105.118H70.5469C68.6084 105.118 67.0312 103.541 67.0312 101.602ZM55.5384 59.647H64.4616C63.8613 60.682 63.5156 61.8824 63.5156 63.1626V101.602C63.5156 102.882 63.8613 104.083 64.4616 105.118H55.5384C56.1387 104.083 56.4844 102.882 56.4844 101.602V63.1626C56.4844 61.8824 56.1387 60.682 55.5384 59.647V59.647Z" fill="black"/>
<path d="M87.0664 38.5537H81.7227C80.8705 27.869 72.3216 19.32 61.637 18.468V14.8818H65.1526V11.3662H54.6057V14.8818H58.1213V18.4682C52.5022 18.9215 47.2374 21.5336 43.468 25.7908L46.1 28.1212C49.5934 24.1757 54.6156 21.9129 59.8789 21.9129C69.4309 21.9129 77.3033 29.2303 78.1913 38.5535H41.5663C41.8318 35.7698 42.7243 33.0834 44.1901 30.6975L41.1945 28.8571C39.3887 31.7969 38.3131 35.1185 38.0382 38.5535H32.6917V42.0691H87.0664V38.5537Z" fill="black"/>
</svg>
