<svg width="120" height="120" viewBox="0 0 120 120" fill="none" xmlns="http://www.w3.org/2000/svg">
<path d="M43.125 76.875H114.375V91.4062C114.375 92.0279 114.128 92.624 113.689 93.0635C113.249 93.5031 112.653 93.75 112.031 93.75H43.125V76.875Z" fill="#FFA101"/>
<path d="M10.3125 63.75H43.125V93.75H7.96875C7.34715 93.75 6.75101 93.5031 6.31147 93.0635C5.87193 92.624 5.625 92.0279 5.625 91.4062V68.4375C5.625 67.1943 6.11886 66.002 6.99794 65.1229C7.87701 64.2439 9.0693 63.75 10.3125 63.75V63.75Z" fill="#FFA101"/>
<path d="M43.125 63.75H9.375L22.2691 46.0207C22.9214 45.1238 23.7767 44.3939 24.7649 43.8906C25.7532 43.3874 26.8465 43.125 27.9555 43.125H43.125V63.75Z" fill="#FFF9F7"/>
<path d="M45.4688 24.375H112.031C112.653 24.375 113.249 24.6219 113.689 25.0615C114.128 25.501 114.375 26.0971 114.375 26.7188V76.875H43.125V26.7188C43.125 26.0971 43.3719 25.501 43.8115 25.0615C44.251 24.6219 44.8471 24.375 45.4688 24.375V24.375Z" fill="#FFDFA9"/>
<path d="M24.375 106.875C30.5882 106.875 35.625 101.838 35.625 95.625C35.625 89.4118 30.5882 84.375 24.375 84.375C18.1618 84.375 13.125 89.4118 13.125 95.625C13.125 101.838 18.1618 106.875 24.375 106.875Z" fill="#4D4D4D"/>
<path d="M95.625 106.875C101.838 106.875 106.875 101.838 106.875 95.625C106.875 89.4118 101.838 84.375 95.625 84.375C89.4118 84.375 84.375 89.4118 84.375 95.625C84.375 101.838 89.4118 106.875 95.625 106.875Z" fill="#4D4D4D"/>
<path d="M43.125 43.125H28.125L34.9291 32.9187C35.1432 32.5976 35.4332 32.3344 35.7734 32.1523C36.1136 31.9702 36.4935 31.875 36.8794 31.875H43.125V43.125Z" fill="#FFA101"/>
<path d="M30 69.375H37.5V73.125H30V69.375Z" fill="black"/>
<path d="M10.3125 78.75H5.625V68.4375C5.625 67.1943 6.11886 66.002 6.99794 65.1229C7.87701 64.2439 9.0693 63.75 10.3125 63.75H15V74.0625C15 75.3057 14.5061 76.498 13.6271 77.3771C12.748 78.2561 11.5557 78.75 10.3125 78.75Z" fill="#FFDFA9"/>
<path d="M116.25 39.375V26.7188C116.249 25.6003 115.804 24.528 115.013 23.7371C114.222 22.9462 113.15 22.5013 112.031 22.5H45.4688C44.3503 22.5013 43.278 22.9462 42.4871 23.7371C41.6962 24.528 41.2513 25.6003 41.25 26.7188V30H36.8794C36.1847 29.9993 35.5006 30.1705 34.8882 30.4983C34.2757 30.8261 33.7539 31.3003 33.3691 31.8788L27.0937 41.2922C25.8411 41.4159 24.6288 41.8029 23.5361 42.4277C22.4434 43.0525 21.495 43.901 20.753 44.9177L17.2336 49.7564L20.2664 51.9623L23.7853 47.1237C24.2645 46.4668 24.8919 45.9321 25.6165 45.5632C26.3411 45.1942 27.1424 45.0012 27.9555 45H41.25V61.875H13.057L18.3914 54.5405L15.3586 52.3345L8.15625 62.2392C6.87008 62.6884 5.75525 63.5262 4.9659 64.6366C4.17654 65.7469 3.75166 67.0751 3.75 68.4375V91.4062C3.7513 92.5247 4.1962 93.597 4.98708 94.3879C5.77797 95.1788 6.85027 95.6237 7.96875 95.625H11.25C11.25 99.106 12.6328 102.444 15.0942 104.906C17.5556 107.367 20.894 108.75 24.375 108.75C27.856 108.75 31.1944 107.367 33.6558 104.906C36.1172 102.444 37.5 99.106 37.5 95.625H82.5C82.5 99.106 83.8828 102.444 86.3442 104.906C88.8056 107.367 92.144 108.75 95.625 108.75C99.106 108.75 102.444 107.367 104.906 104.906C107.367 102.444 108.75 99.106 108.75 95.625H112.031C113.15 95.6237 114.222 95.1788 115.013 94.3879C115.804 93.597 116.249 92.5247 116.25 91.4062V43.125H112.5V75H45V26.7188C45 26.5944 45.0494 26.4752 45.1373 26.3873C45.2252 26.2994 45.3444 26.25 45.4688 26.25H112.031C112.156 26.25 112.275 26.2994 112.363 26.3873C112.451 26.4752 112.5 26.5944 112.5 26.7188V39.375H116.25ZM31.6284 41.25L36.4894 33.9588C36.5322 33.8946 36.5902 33.8419 36.6582 33.8055C36.7262 33.7691 36.8022 33.75 36.8794 33.75H41.25V41.25H31.6284ZM7.5 68.4375C7.50081 67.6918 7.79738 66.9769 8.32465 66.4497C8.85192 65.9224 9.56683 65.6258 10.3125 65.625H13.125V74.0625C13.1242 74.8082 12.8276 75.5231 12.3003 76.0503C11.7731 76.5776 11.0582 76.8742 10.3125 76.875H7.5V68.4375ZM24.375 105C22.5208 105 20.7082 104.45 19.1665 103.42C17.6248 102.39 16.4232 100.926 15.7136 99.2127C15.0041 97.4996 14.8184 95.6146 15.1801 93.796C15.5419 91.9775 16.4348 90.307 17.7459 88.9959C19.057 87.6848 20.7275 86.7919 22.546 86.4301C24.3646 86.0684 26.2496 86.2541 27.9627 86.9636C29.6757 87.6732 31.1399 88.8748 32.17 90.4165C33.2002 91.9582 33.75 93.7708 33.75 95.625C33.7472 98.1105 32.7586 100.493 31.001 102.251C29.2435 104.009 26.8605 104.997 24.375 105V105ZM36.9544 91.875C36.1464 89.1663 34.4857 86.7908 32.2192 85.1017C29.9527 83.4127 27.2016 82.5003 24.375 82.5003C21.5484 82.5003 18.7973 83.4127 16.5308 85.1017C14.2643 86.7908 12.6036 89.1663 11.7956 91.875H7.96875C7.84443 91.875 7.7252 91.8256 7.63729 91.7377C7.54939 91.6498 7.5 91.5306 7.5 91.4062V80.625H10.3125C12.0524 80.623 13.7204 79.931 14.9507 78.7007C16.181 77.4704 16.873 75.8024 16.875 74.0625V65.625H41.25V91.875H36.9544ZM95.625 105C93.7708 105 91.9582 104.45 90.4165 103.42C88.8748 102.39 87.6732 100.926 86.9636 99.2127C86.2541 97.4996 86.0684 95.6146 86.4301 93.796C86.7919 91.9775 87.6848 90.307 88.9959 88.9959C90.307 87.6848 91.9775 86.7919 93.796 86.4301C95.6146 86.0684 97.4996 86.2541 99.2127 86.9636C100.926 87.6732 102.39 88.8748 103.42 90.4165C104.45 91.9582 105 93.7708 105 95.625C104.997 98.1105 104.009 100.493 102.251 102.251C100.493 104.009 98.1105 104.997 95.625 105ZM112.5 78.75V91.4062C112.5 91.5306 112.451 91.6498 112.363 91.7377C112.275 91.8256 112.156 91.875 112.031 91.875H108.204C107.396 89.1663 105.736 86.7908 103.469 85.1017C101.203 83.4127 98.4516 82.5003 95.625 82.5003C92.7984 82.5003 90.0472 83.4127 87.7808 85.1017C85.5143 86.7908 83.8536 89.1663 83.0456 91.875H45V78.75H112.5Z" fill="black"/>
<path d="M74.7007 66.3648C68.7352 62.0193 64.6641 55.551 63.3262 48.2929L61.9216 39.3754L78.7732 31.8613L95.6248 39.3754L94.2056 48.3672C92.8568 55.6873 88.7275 62.2015 82.6828 66.5448L78.7882 69.3754L74.7007 66.3648Z" fill="#9FDC6E"/>
<path d="M78.7883 71.2503C78.3881 71.2504 77.9985 71.1224 77.6764 70.8849L73.5889 67.8753C67.2379 63.2467 62.9044 56.3582 61.4816 48.6293C61.479 48.6146 61.4764 48.6 61.4743 48.5853L60.0695 39.6673C60.0053 39.26 60.0772 38.843 60.274 38.4807C60.4708 38.1184 60.7816 37.831 61.1581 37.6632L78.0097 30.1489C78.25 30.0417 78.5102 29.9863 78.7733 29.9863C79.0364 29.9863 79.2966 30.0417 79.5369 30.1489L96.3884 37.6632C96.7651 37.8311 97.0759 38.1186 97.2726 38.481C97.4694 38.8434 97.5412 39.2606 97.4769 39.668L96.0577 48.6596C96.0554 48.6741 96.053 48.6886 96.0502 48.7032C94.6161 56.4983 90.2209 63.436 83.7854 68.0625L79.8908 70.8938C79.5701 71.126 79.1842 71.2508 78.7883 71.2503V71.2503ZM65.1751 47.9787C66.432 54.7576 70.2389 60.797 75.8127 64.8549L78.7955 67.0519L81.5804 65.0276C87.2282 60.9714 91.0896 54.889 92.3572 48.0521L93.5487 40.5019L78.7733 33.9143L63.9973 40.5031L65.1751 47.9787Z" fill="black"/>
<path d="M76.8769 56.2502C76.6306 56.2504 76.3868 56.202 76.1593 56.1078C75.9318 56.0135 75.7251 55.8752 75.5513 55.7008L69.9263 50.0758L72.5778 47.4243L76.8769 51.7235L86.8013 41.7993L89.4528 44.4508L78.2028 55.7008C78.0288 55.8752 77.8222 56.0135 77.5947 56.1078C77.3671 56.2021 77.1232 56.2505 76.8769 56.2502V56.2502Z" fill="black"/>
<path d="M48.75 30H52.5V33.75H48.75V30Z" fill="black"/>
<path d="M48.75 67.5H52.5V71.25H48.75V67.5Z" fill="black"/>
<path d="M105 30H108.75V33.75H105V30Z" fill="black"/>
<path d="M105 67.5H108.75V71.25H105V67.5Z" fill="black"/>
<path d="M24.375 99.375C26.4461 99.375 28.125 97.6961 28.125 95.625C28.125 93.5539 26.4461 91.875 24.375 91.875C22.3039 91.875 20.625 93.5539 20.625 95.625C20.625 97.6961 22.3039 99.375 24.375 99.375Z" fill="#FEFEFE"/>
<path d="M24.375 101.25C23.2625 101.25 22.1749 100.92 21.2499 100.302C20.3249 99.6839 19.6039 98.8054 19.1782 97.7776C18.7524 96.7498 18.641 95.6188 18.8581 94.5276C19.0751 93.4365 19.6109 92.4342 20.3975 91.6475C21.1842 90.8609 22.1865 90.3251 23.2776 90.1081C24.3688 89.891 25.4998 90.0024 26.5276 90.4282C27.5554 90.8539 28.4339 91.5749 29.052 92.4999C29.6701 93.4249 30 94.5125 30 95.625C29.9983 97.1163 29.4052 98.5461 28.3506 99.6006C27.2961 100.655 25.8663 101.248 24.375 101.25V101.25ZM24.375 93.75C24.0042 93.75 23.6416 93.86 23.3333 94.066C23.025 94.272 22.7846 94.5649 22.6427 94.9075C22.5008 95.2501 22.4637 95.6271 22.536 95.9908C22.6084 96.3545 22.787 96.6886 23.0492 96.9508C23.3114 97.2131 23.6455 97.3916 24.0092 97.464C24.3729 97.5363 24.7499 97.4992 25.0925 97.3573C25.4351 97.2154 25.728 96.975 25.934 96.6667C26.14 96.3584 26.25 95.9958 26.25 95.625C26.2494 95.1279 26.0517 94.6513 25.7002 94.2998C25.3487 93.9483 24.8721 93.7506 24.375 93.75Z" fill="black"/>
<path d="M95.625 99.375C97.6961 99.375 99.375 97.6961 99.375 95.625C99.375 93.5539 97.6961 91.875 95.625 91.875C93.5539 91.875 91.875 93.5539 91.875 95.625C91.875 97.6961 93.5539 99.375 95.625 99.375Z" fill="#FEFEFE"/>
<path d="M95.625 101.25C94.5125 101.25 93.4249 100.92 92.4999 100.302C91.5749 99.6839 90.8539 98.8054 90.4282 97.7776C90.0024 96.7498 89.891 95.6188 90.1081 94.5276C90.3251 93.4365 90.8609 92.4342 91.6475 91.6475C92.4342 90.8609 93.4365 90.3251 94.5276 90.1081C95.6188 89.891 96.7498 90.0024 97.7776 90.4282C98.8054 90.8539 99.6839 91.5749 100.302 92.4999C100.92 93.4249 101.25 94.5125 101.25 95.625C101.248 97.1163 100.655 98.5461 99.6006 99.6006C98.5461 100.655 97.1163 101.248 95.625 101.25V101.25ZM95.625 93.75C95.2542 93.75 94.8917 93.86 94.5833 94.066C94.275 94.272 94.0346 94.5649 93.8927 94.9075C93.7508 95.2501 93.7137 95.6271 93.786 95.9908C93.8584 96.3545 94.037 96.6886 94.2992 96.9508C94.5614 97.2131 94.8955 97.3916 95.2592 97.464C95.6229 97.5363 95.9999 97.4992 96.3425 97.3573C96.6851 97.2154 96.978 96.975 97.184 96.6667C97.39 96.3584 97.5 95.9958 97.5 95.625C97.4994 95.1279 97.3017 94.6513 96.9502 94.2998C96.5987 93.9483 96.1221 93.7506 95.625 93.75Z" fill="black"/>
<path d="M3.75 30H18.75V33.75H3.75V30Z" fill="black"/>
<path d="M22.5 30H26.25V33.75H22.5V30Z" fill="black"/>
<path d="M20.625 11.25H50.625V15H20.625V11.25Z" fill="black"/>
<path d="M54.375 11.25H58.125V15H54.375V11.25Z" fill="black"/>
<path d="M71.25 15H101.25V18.75H71.25V15Z" fill="black"/>
<path d="M105 15H108.75V18.75H105V15Z" fill="black"/>
<path d="M39.375 101.25H73.125V105H39.375V101.25Z" fill="black"/>
<path d="M76.875 101.25H80.625V105H76.875V101.25Z" fill="black"/>
</svg>
