<svg width="14" height="23" viewBox="0 0 14 23" fill="none" xmlns="http://www.w3.org/2000/svg">
<path opacity="0.7" d="M8.85418 11.5013L1.00231 2.95192C0.680201 2.62661 0.499512 2.18732 0.499512 1.72952C0.499512 1.27172 0.680201 0.832428 1.00231 0.507118C1.16048 0.346506 1.34901 0.218957 1.55694 0.131896C1.76487 0.0448347 1.98804 0 2.21346 0C2.43888 0 2.66205 0.0448347 2.86998 0.131896C3.07791 0.218957 3.26644 0.346506 3.42461 0.507118L12.9988 10.2763C13.3205 10.6024 13.5009 11.042 13.5009 11.5C13.5009 11.958 13.3205 12.3976 12.9988 12.7237L3.42461 22.4929C3.26644 22.6535 3.07791 22.781 2.86998 22.8681C2.66205 22.9552 2.43888 23 2.21346 23C1.98804 23 1.76487 22.9552 1.55694 22.8681C1.34901 22.781 1.16048 22.6535 1.00231 22.4929C0.680201 22.1676 0.499512 21.7283 0.499512 21.2705C0.499512 20.8127 0.680201 20.3734 1.00231 20.0481L8.85418 11.5013Z" fill="#4F576A"/>
</svg>
