<svg width="17" height="13" viewBox="0 0 17 13" fill="none" xmlns="http://www.w3.org/2000/svg">
<path d="M1.10627 2.74114e-05C0.933877 2.74114e-05 0.768547 0.0685093 0.646648 0.190408C0.52475 0.312306 0.456268 0.477636 0.456268 0.650026C0.456268 0.822416 0.52475 0.987746 0.646648 1.10964C0.768547 1.23154 0.933877 1.30002 1.10627 1.30002H2.54926L4.25486 8.12501C4.39981 8.70351 4.91786 9.10001 5.51391 9.10001H13.6194C14.2063 9.10001 14.7049 8.71001 14.8589 8.14451L16.5437 1.95002H15.1826L13.6187 7.80001H5.51326L3.80831 0.975025C3.73788 0.695025 3.57553 0.446757 3.34725 0.269981C3.11898 0.0932043 2.83798 -0.0018544 2.54926 2.74114e-05H1.10627ZM12.8062 9.10001C11.737 9.10001 10.8562 9.98076 10.8562 11.05C10.8562 12.1193 11.737 13 12.8062 13C13.8755 13 14.7562 12.1193 14.7562 11.05C14.7562 9.98076 13.8755 9.10001 12.8062 9.10001ZM6.95625 9.10001C5.88701 9.10001 5.00626 9.98076 5.00626 11.05C5.00626 12.1193 5.88701 13 6.95625 13C8.0255 13 8.90625 12.1193 8.90625 11.05C8.90625 9.98076 8.0255 9.10001 6.95625 9.10001ZM8.90625 2.74114e-05V1.95002H6.95625V3.25002H8.90625V5.20002H10.2062V3.25002H12.1562V1.95002H10.2062V2.74114e-05H8.90625ZM6.95625 10.4C7.32285 10.4 7.60625 10.6834 7.60625 11.05C7.60625 11.4166 7.32285 11.7 6.95625 11.7C6.58966 11.7 6.30626 11.4166 6.30626 11.05C6.30626 10.6834 6.58966 10.4 6.95625 10.4ZM12.8062 10.4C13.1728 10.4 13.4562 10.6834 13.4562 11.05C13.4562 11.4166 13.1728 11.7 12.8062 11.7C12.4396 11.7 12.1562 11.4166 12.1562 11.05C12.1562 10.6834 12.4396 10.4 12.8062 10.4Z" fill="white"/>
</svg>
