<svg width="16" height="17" viewBox="0 0 16 17" fill="none" xmlns="http://www.w3.org/2000/svg">
<path d="M14.8571 2.34467H9.14286V1.20182C9.14286 0.898713 9.02245 0.608022 8.80812 0.393695C8.5938 0.179368 8.3031 0.05896 8 0.05896H1.14286C0.839753 0.05896 0.549062 0.179368 0.334735 0.393695C0.120408 0.608022 0 0.898713 0 1.20182V12.6304C0 12.9335 0.120408 13.2242 0.334735 13.4385C0.549062 13.6528 0.839753 13.7732 1.14286 13.7732H6.85714V14.9161C6.85714 15.2192 6.97755 15.5099 7.19188 15.7242C7.40621 15.9386 7.6969 16.059 8 16.059H14.8571C15.1602 16.059 15.4509 15.9386 15.6653 15.7242C15.8796 15.5099 16 15.2192 16 14.9161V3.48753C16 3.18443 15.8796 2.89374 15.6653 2.67941C15.4509 2.46508 15.1602 2.34467 14.8571 2.34467ZM1.14286 7.48753H4.66857L3.19429 8.96753L4 9.77325L6.85714 6.9161L4 4.05896L3.19429 4.86467L4.66857 6.34467H1.14286V1.20182H8V12.6304H1.14286V7.48753ZM8 14.9161V13.7732C8.3031 13.7732 8.5938 13.6528 8.80812 13.4385C9.02245 13.2242 9.14286 12.9335 9.14286 12.6304V3.48753H14.8571V8.63039H11.3314L12.8057 7.15039L12 6.34467L9.14286 9.20182L12 12.059L12.8057 11.2532L11.3314 9.77325H14.8571V14.9161H8Z" fill="#FFA101"/>
</svg>
